<?xml version="1.0" encoding="utf-8"?>
<!-- Generator: Adobe Illustrator 26.5.0, SVG Export Plug-In . SVG Version: 6.00 Build 0)  -->
<svg version="1.1" id="Layer_1" xmlns="http://www.w3.org/2000/svg" xmlns:xlink="http://www.w3.org/1999/xlink" x="0px" y="0px"
	 viewBox="0 0 257.3 221.3" style="enable-background:new 0 0 257.3 221.3;" xml:space="preserve">
<style type="text/css">
	.st0{fill:url(#SVGID_1_);}
	.st1{fill:url(#SVGID_00000105391526814559455670000012723671229577627822_);}
	.st2{fill:url(#SVGID_00000123411518110370085460000006965240993048674992_);}
	.st3{fill:url(#SVGID_00000139269733772934558180000013469503850992425892_);}
	.st4{fill:url(#SVGID_00000094583766698242745130000013410044128665857196_);}
	.st5{fill-rule:evenodd;clip-rule:evenodd;fill:url(#SVGID_00000182519097698261763610000005239115764663167890_);}
</style>
<g>
	<g>
		<linearGradient id="SVGID_1_" gradientUnits="userSpaceOnUse" x1="161.5881" y1="63.9851" x2="192.8645" y2="63.9851">
			<stop  offset="0" style="stop-color:#456B4D"/>
			<stop  offset="1" style="stop-color:#009444;stop-opacity:0.5"/>
		</linearGradient>
		<path class="st0" d="M173.5,94.9c-6-5.5-10.1-13.1-11.4-21.1c-1.4-8,0.1-16.5,3.9-23.7c3.5-6.5,8.8-11.7,14-16.9
			c8,9.4,13.4,20.9,12.8,33.2S184.7,89.6,173.5,94.9z"/>
		
			<linearGradient id="SVGID_00000038372733135067421780000000345430390814160306_" gradientUnits="userSpaceOnUse" x1="159.9165" y1="68.2126" x2="240.5396" y2="68.2126">
			<stop  offset="0" style="stop-color:#456B4D"/>
			<stop  offset="1" style="stop-color:#009444;stop-opacity:0.5"/>
		</linearGradient>
		<path style="fill:url(#SVGID_00000038372733135067421780000000345430390814160306_);" d="M240.5,99c-11.1,9-24.5,15-38.7,13.8
			c-13.9-1.1-26.3-9.7-32.2-22.4c-4.7-5.8-7.9-12.7-9.1-20.1c-1.6-9.3,0.1-19.1,4.5-27.4c4-7.5,10.2-13.6,16.2-19.6
			c9.2,10.9,15.5,24.2,14.8,38.4c-0.3,5.6-1.8,10.9-4.3,15.7c0.8-0.2,1.6-0.3,2.4-0.4c9.3-1.4,19.1,0.5,27.3,5.2
			C228.8,86.5,234.7,92.8,240.5,99z"/>
		<g>
			
				<linearGradient id="SVGID_00000066515961483173040200000012436373408518836651_" gradientUnits="userSpaceOnUse" x1="161.5884" y1="71.3826" x2="230.8797" y2="71.3826">
				<stop  offset="0" style="stop-color:#456B4D"/>
				<stop  offset="1" style="stop-color:#009444;stop-opacity:0.5"/>
			</linearGradient>
			<path style="fill:url(#SVGID_00000066515961483173040200000012436373408518836651_);" d="M230.9,97.6c-9.6,7.8-21.2,12.9-33.5,12
				c-11.7-0.9-22.1-8-27.3-18.4c-4.1-5-6.9-11.1-8-17.4c-1.3-8,0.1-16.5,3.9-23.7c3.5-6.5,8.8-11.7,14-16.9
				c8,9.4,13.4,20.9,12.8,33.2c-0.2,4.4-1.4,8.7-3.2,12.5c0.4-0.1,0.7-0.1,1.1-0.2c8.1-1.2,16.5,0.4,23.6,4.5
				C220.7,86.8,225.8,92.2,230.9,97.6z"/>
		</g>
		
			<linearGradient id="SVGID_00000169558456894012674420000016989121928256362902_" gradientUnits="userSpaceOnUse" x1="151.7655" y1="20.3889" x2="183.0419" y2="20.3889" gradientTransform="matrix(-2.356547e-02 0.9997 -0.9997 -2.356547e-02 224.4195 -72.8655)">
			<stop  offset="0" style="stop-color:#456B4D"/>
			<stop  offset="1" style="stop-color:#009444;stop-opacity:0.5"/>
		</linearGradient>
		<path style="fill:url(#SVGID_00000169558456894012674420000016989121928256362902_);" d="M169.3,89.6c5.7-5.9,13.3-9.8,21.4-10.9
			s16.5,0.4,23.6,4.5c6.4,3.6,11.5,9.1,16.6,14.4c-9.6,7.7-21.2,12.9-33.5,12C185.1,108.6,174.3,100.9,169.3,89.6z"/>
		<g>
			
				<linearGradient id="SVGID_00000001636806751080232350000007402662031035875728_" gradientUnits="userSpaceOnUse" x1="156.2666" y1="91.5006" x2="192.5618" y2="91.5006">
				<stop  offset="0" style="stop-color:#FFE7A3"/>
				<stop  offset="0.5" style="stop-color:#FFCA05"/>
				<stop  offset="1" style="stop-color:#FAAC18"/>
			</linearGradient>
			<polygon style="fill:url(#SVGID_00000001636806751080232350000007402662031035875728_);" points="192.6,86.4 179.5,86.4 
				179.5,73.4 169.3,73.4 169.3,86.4 156.3,86.4 156.3,96.6 169.3,96.6 169.3,109.6 179.5,109.6 179.5,96.6 192.6,96.6 			"/>
		</g>
	</g>
	<g>
		<path d="M51.4,65.1v30.5c0,11.7-6.1,17.4-18.8,17.4c-12.6,0-17.8-6-17.8-17.2V65.1c0-11.5,7-17.1,18.5-17.1
			C45.1,48,51.4,53.9,51.4,65.1z M25.5,64.4v32.2c0,6,2.7,8.7,7.5,8.7c5.1,0,7.6-2.5,7.6-8.9V64.4c0-5.7-2.3-8.7-7.6-8.7
			C28.1,55.7,25.5,58.4,25.5,64.4z"/>
		<path d="M61,48.9h16.3c12.2,0,18.3,4.9,18.3,15.7v3.8c0,10-4.2,17-18.9,17h-5v26.8H61V48.9z M71.6,78.3h3.9
			c8.2,0,9.5-3.9,9.5-10.3v-3.2c0-4.8-1.2-8.9-8.5-8.9h-4.8V78.3z"/>
		<path d="M111,93.8v3.8c0,5.2,2.1,8.1,7.1,8.1c5.1,0,6.8-3.5,6.8-8.8c0-7.1-1.9-9.5-10.3-14.8c-8.5-5.3-12.9-8.7-12.9-18
			c0-8.2,3.1-16.3,16.6-16.3c13.4,0,16,7.5,16,14.8v3.2h-10.5v-3c0-4.8-1.1-7.7-5.7-7.7c-4.6,0-5.8,3.2-5.8,7.7
			c0,5.1,1.2,7.3,8.3,11.5c11.5,6.8,15,10.8,15,21.3c0,8.9-3.6,17.3-17.8,17.3c-13.8,0-17.4-7.1-17.4-15.5v-3.7H111z"/>
	</g>
	<g>
		<path d="M14.7,132.4h12.2c10.5,0,14.5,4.4,14.5,12v2.2c0,7.6-2.9,9.8-5.9,10.8c3.1,0.9,7.1,3.2,7.1,10.8v4
			c0,9.2-4.2,13.9-15.1,13.9H14.7V132.4z M26.1,154.7c5.5,0,7.2-1.6,7.2-7.4v-2.2c0-4.6-2-6.6-7-6.6h-3.4v16.2H26.1z M22.9,180.2
			h3.6c6.1,0,7.6-2.4,7.6-8.2v-3.6c0-5.5-1.9-7.9-8.1-7.9h-3.2V180.2z"/>
		<path d="M63.6,132.4v53.8h-8.5v-53.8H63.6z"/>
		<path d="M106.9,146.2v25.9c0,9.9-4.9,14.8-15.1,14.8c-10.1,0-14.3-5.1-14.3-14.6v-26.1c0-9.8,5.6-14.5,14.8-14.5
			C101.8,131.6,106.9,136.7,106.9,146.2z M86.2,145.6V173c0,5.1,2.2,7.4,6,7.4c4.1,0,6-2.1,6-7.5v-27.3c0-4.9-1.9-7.4-6.1-7.4
			C88.2,138.2,86.2,140.5,86.2,145.6z"/>
		<path d="M124.2,139.1H114v-6.7h28.9v6.7h-10.2v47.1h-8.5V139.1z"/>
		<path d="M161.8,132.4v53.8h-8.5v-53.8H161.8z"/>
		<path d="M203.2,170.4v2c0,6.4-1.3,14.6-13.9,14.6c-11.4,0-13.6-6.4-13.6-14.5v-27.2c0-8.4,4.4-13.6,13.8-13.6
			c11.3,0,13.4,6.6,13.4,13.8v2.3h-8.5v-3c0-3.9-0.9-6.5-5-6.5c-3.9,0-5.1,2.5-5.1,6.6V173c0,4.3,1.1,7.4,5.2,7.4c4.1,0,5-2.9,5-7.4
			v-2.7H203.2z"/>
		<path d="M220.9,170.6v3.2c0,4.4,1.7,6.9,5.7,6.9c4.1,0,5.4-2.9,5.4-7.4c0-6-1.5-8.1-8.3-12.6c-6.8-4.5-10.3-7.4-10.3-15.3
			c0-7,2.5-13.9,13.3-13.8c10.7,0,12.8,6.4,12.8,12.6v2.7H231v-2.5c0-4-0.9-6.6-4.6-6.6c-3.7,0-4.6,2.7-4.6,6.6c0,4.3,1,6.2,6.6,9.8
			c9.2,5.8,12,9.1,12,18.1c0,7.6-2.9,14.7-14.2,14.7c-11.1,0-13.9-6.1-13.9-13.1v-3.1H220.9z"/>
	</g>
	
		<linearGradient id="SVGID_00000124128241467171684630000015739941245362346911_" gradientUnits="userSpaceOnUse" x1="14.7337" y1="205.1686" x2="240.5419" y2="205.1686">
		<stop  offset="0" style="stop-color:#456B4D"/>
		<stop  offset="1" style="stop-color:#009444;stop-opacity:0.5"/>
	</linearGradient>
	
		<polygon style="fill-rule:evenodd;clip-rule:evenodd;fill:url(#SVGID_00000124128241467171684630000015739941245362346911_);" points="
		240.5,196.5 240.5,213.8 14.7,213.8 14.7,196.5 	"/>
</g>
</svg>
