<?xml version="1.0" encoding="UTF-8"?>
<svg width="205px" height="55px" viewBox="0 0 205 55" version="1.1" xmlns="http://www.w3.org/2000/svg" xmlns:xlink="http://www.w3.org/1999/xlink">
    <!-- Generator: Sketch 63.1 (92452) - https://sketch.com -->
    <title>Sto large logo</title>
    <desc>Created with Sketch.</desc>
    <g id="01_basics" stroke="none" stroke-width="1" fill="none" fill-rule="evenodd">
        <g id="sto-logo_large" transform="translate(-26.000000, -26.000000)">
            <g id="Sto-large-logo" transform="translate(26.000000, 26.000000)">
                <path d="M56.5156041,28.3499181 C55.475919,28.9161596 54.3313248,29.2087419 53.1505551,29.2087419 C51.9712323,29.2087419 50.8034858,28.9168874 49.7630772,28.3499181 C48.7523325,27.7989608 47.9007602,26.9925399 47.2973522,26.0034369 C46.7076908,25.0441744 46.3980282,23.937893 46.3951341,22.8061379 C46.3980282,21.6751107 46.7076908,20.5702849 47.2973522,19.6066555 C47.9000367,18.6219194 48.751609,17.8154985 49.7630772,17.2645412 C50.8034858,16.6968441 51.9705088,16.4057174 53.1505551,16.4057174 C54.3313248,16.4057174 55.475919,16.6961163 56.5156041,17.2645412 C57.5249017,17.8154985 58.376474,18.6219194 58.9813291,19.6110224 C59.5702669,20.5702849 59.8813766,21.6758385 59.8842707,22.8068657 C59.8821001,23.9386208 59.5709905,25.0441744 58.9813291,26.0063482 C58.376474,26.9925399 57.5249017,27.7989608 56.5156041,28.3499181 M65.1369595,16.2143016 C63.8975854,14.2055274 62.1495832,12.5541112 60.0600838,11.4230839 C57.9358559,10.2694944 55.5721459,9.67195682 53.1505551,9.67195682 L35.3767872,9.67195682 C35.3398881,9.67195682 35.3015421,9.65521703 35.2769427,9.62828781 C35.2501728,9.60572549 35.2371496,9.57079029 35.2371496,9.53803853 L35.2371496,0 L35.0859358,0 C33.2865643,0 31.5602674,0.700887532 30.2883353,1.95782706 C29.0120621,3.21331096 28.2972334,4.91276308 28.2972334,6.69009158 L28.2972334,9.53803853 C28.2972334,9.57079029 28.2834867,9.60572549 28.2603343,9.62828781 C28.2321174,9.65448921 28.1952183,9.67195682 28.1590428,9.67195682 L8.23427714,9.67195682 C5.31925187,9.67195682 2.55399335,11.2018276 1.09394843,13.6909609 C0.365372986,14.9333441 0,16.3256576 0,17.7143319 C0,19.1044619 0.365372986,20.4938641 1.09394843,21.7391586 C2.55471686,24.2282919 5.2483478,25.7603461 8.16337307,25.7603461 L17.5458619,25.7581627 C18.0950067,25.7581627 18.6029113,26.0500172 18.8669928,26.5230981 C18.9950542,26.7428987 19.0572761,26.9932677 19.0572761,27.2443645 C19.0572761,27.5158401 18.9842015,27.7858601 18.8366053,28.0267675 C18.5573301,28.4612741 18.0704073,28.7305663 17.5458619,28.7305663 L0.139637597,28.7305663 L0.176536651,28.9139761 C0.976016155,32.6323919 4.30778368,35.288923 8.16337307,35.288923 L17.5458619,35.288923 C20.4608872,35.288923 23.1552417,33.7575966 24.6131161,31.2691911 C25.342415,30.0231688 25.7099585,28.6344945 25.7099585,27.2450923 C25.7099585,25.8564179 25.342415,24.4670157 24.6131161,23.2239047 C23.1559652,20.7347714 20.4616107,19.2027172 17.5458619,19.2027172 L8.16337307,19.2027172 C7.61133428,19.2027172 7.10777072,18.9108627 6.84296575,18.440693 C6.71128677,18.2128864 6.64906484,17.9668843 6.64906484,17.7157876 C6.64906484,17.4472232 6.72430997,17.1742919 6.8733532,16.9370236 C7.14973435,16.4959667 7.63665716,16.2303136 8.16047903,16.2303136 C8.17711978,16.2303136 8.20099564,16.2303136 8.22559501,16.2332248 L28.1575958,16.2332248 C28.1937713,16.2332248 28.2313939,16.2470534 28.2530992,16.2732548 C28.2849337,16.2987283 28.2957864,16.3307523 28.2957864,16.3685988 L28.2957864,29.3084528 C28.2957864,31.7801185 29.6776921,34.0516346 31.8858473,35.2125023 C32.8850158,35.7365303 33.9883698,36 35.0844888,36 C36.4027256,36 37.7202389,35.6215353 38.8568744,34.8747953 C38.9364606,34.8209369 38.9907239,34.7314154 38.9907239,34.6302489 L38.9907239,28.7887916 L38.7476243,28.9751127 C38.3547579,29.2793401 37.8779642,29.4416432 37.394659,29.4416432 C37.0770377,29.4416432 36.7572459,29.3717728 36.4584359,29.232032 C35.7110492,28.8775853 35.2349791,28.1330287 35.2349791,27.3193296 L35.2349791,16.3664153 C35.2349791,16.3285688 35.2458317,16.2965449 35.2747721,16.2739826 C35.300095,16.2448699 35.3377176,16.2310414 35.3746166,16.2310414 L41.1200164,16.2310414 C39.9074122,18.2077917 39.2685521,20.4640236 39.2685521,22.7755696 C39.2736167,25.0878434 39.9182649,27.3469866 41.1344866,29.3237369 C42.3738607,31.3295999 44.1240335,32.9795605 46.2142564,34.1091321 C48.3392078,35.2634494 50.7238996,35.8580757 53.1512786,35.8580757 C55.5728694,35.8580757 57.941644,35.2576269 60.0658719,34.1047652 C62.1568183,32.9715545 63.9048205,31.3186827 65.1398536,29.3106362 C66.3553518,27.3324303 67,25.0929382 67,22.7792087 C66.9992765,20.4669349 66.3524578,18.1903241 65.1369595,16.2143016" id="Fill-1" fill="#000000"></path>
                <polygon id="Fill-4" fill="#FFD700" points="79 37 205 37 205 11 79 11"></polygon>
                <g id="slogan-de" transform="translate(79.000000, 46.000000)" fill="#000000" fill-rule="nonzero">
                    <path d="M0.185345794,8.316 L0.185345794,0.699230769 L2.20478505,0.699230769 C3.44826168,0.699230769 4.64609346,1.14576923 4.64609346,2.58438462 C4.64609346,3.53215385 4.08728972,4.11507692 3.18614953,4.33107692 C4.14469159,4.47992308 4.86325234,5.14176923 4.86325234,6.147 C4.86325234,7.89369231 3.36872897,8.316 1.90878505,8.316 L0.185345794,8.316 L0.185345794,8.316 Z M1.07472897,4.023 L1.9302243,4.023 C2.85418692,4.023 3.72143925,3.71561538 3.72143925,2.64115385 C3.72143925,1.68230769 2.92265421,1.40884615 2.11280374,1.40884615 L1.07472897,1.40884615 L1.07472897,4.023 Z M1.07472897,7.60846154 L1.88457944,7.60846154 C2.84242991,7.60846154 3.92684112,7.35715385 3.92684112,6.18023077 C3.92684112,4.90084615 2.77465421,4.69523077 1.75940187,4.69523077 L1.07472897,4.69523077 L1.07472897,7.60846154 L1.07472897,7.60846154 Z" id="Shape"></path>
                    <path d="M6.81491589,5.57653846 C6.81491589,6.67176923 7.39654206,7.76838462 8.82259813,7.76838462 C9.37033645,7.76838462 9.96302804,7.60984615 10.3855888,7.33430769 L10.4194766,8.07646154 C9.92914019,8.316 9.35857944,8.44130769 8.82259813,8.44130769 C6.86056075,8.44130769 5.94766355,7.15153846 5.94766355,5.44984615 C5.94766355,3.99946154 6.78033645,2.51515385 8.48026168,2.51515385 C10.2486542,2.51515385 10.7507477,3.93092308 10.7507477,5.43876923 L10.7507477,5.57653846 L6.81491589,5.57653846 Z M9.9408972,4.95830769 C9.88418692,4.18223077 9.59856075,3.17769231 8.49201869,3.17769231 C7.40829907,3.17769231 6.84949533,4.14830769 6.81491589,4.95830769 L9.9408972,4.95830769 Z" id="Shape"></path>
                    <polygon id="Path" points="13.0343738 8.316 11.2320935 2.62938462 12.1221682 2.62938462 13.5710467 7.53992308 15.0427477 2.62938462 16.0351776 2.62938462 17.5068785 7.53992308 18.944 2.62938462 19.742785 2.62938462 17.9743925 8.316 16.9591402 8.316 15.5102617 3.41723077 14.0385607 8.316"></polygon>
                    <path d="M21.5243178,5.99815385 C21.5243178,6.90023077 21.6958318,7.722 22.7788598,7.722 C23.9649346,7.722 24.330785,6.69461538 24.330785,5.68869231 L24.330785,2.628 L25.1523925,2.628 L25.1523925,6.97846154 C25.1523925,7.42430769 25.1648411,7.86946154 25.2097944,8.31461538 L24.4462804,8.31461538 L24.4234579,7.33292308 C24.0237196,8.064 23.4199626,8.44130769 22.5865981,8.44130769 C21.1384112,8.44130769 20.693028,7.47069231 20.693028,6.147 L20.693028,2.62938462 L21.5257009,2.62938462 L21.5243178,5.99815385 L21.5243178,5.99815385 Z" id="Path"></path>
                    <path d="M26.5680748,7.40146154 C27.0245234,7.64238462 27.4463925,7.75661538 27.9595514,7.75661538 C28.5985794,7.75661538 29.043271,7.44853846 29.043271,6.80884615 C29.043271,5.427 26.5908972,5.82646154 26.5908972,4.09084615 C26.5908972,2.94923077 27.5376822,2.51515385 28.4263738,2.51515385 C28.895271,2.51515385 29.3164486,2.60723077 29.7154953,2.75607692 L29.6013832,3.47538462 C29.2472897,3.30369231 28.8378692,3.18876923 28.4374393,3.18876923 C27.9920561,3.18876923 27.4208037,3.36046154 27.4208037,4.04584615 C27.4208037,5.18676923 29.8966916,4.83438462 29.8966916,6.741 C29.8966916,7.83761538 28.972729,8.442 27.9692336,8.442 C27.4208037,8.442 26.9194019,8.37415385 26.4629533,8.17961538 L26.5680748,7.40146154 Z" id="Path"></path>
                    <path d="M31.0066916,7.40146154 C31.4631402,7.64238462 31.8857009,7.75661538 32.3995514,7.75661538 C33.0385794,7.75661538 33.4825794,7.44853846 33.4825794,6.80884615 C33.4825794,5.427 31.029514,5.82646154 31.029514,4.09084615 C31.029514,2.94923077 31.9762991,2.51515385 32.8663738,2.51515385 C33.3338879,2.51515385 33.7550654,2.60723077 34.1548037,2.75607692 L34.0413832,3.47538462 C33.6865981,3.30369231 33.2771776,3.18876923 32.8760561,3.18876923 C32.4306729,3.18876923 31.8608037,3.36046154 31.8608037,4.04584615 C31.8608037,5.18676923 34.3353084,4.83438462 34.3353084,6.741 C34.3353084,7.83761538 33.4113458,8.442 32.4078505,8.442 C31.8608037,8.442 31.3580187,8.37415385 30.9015701,8.17961538 L31.0066916,7.40146154 Z" id="Path"></path>
                    <path d="M38.367271,8.26961538 C38.0809533,8.39561538 37.7503738,8.44130769 37.4433084,8.44130769 C36.2786729,8.44130769 36.1313645,7.596 36.1313645,6.55753846 L36.1313645,3.28015385 L35.0580187,3.28015385 L35.0580187,2.62938462 L36.1313645,2.62938462 L36.1313645,1.35 L36.952972,1.06476923 L36.952972,2.62938462 L38.2414019,2.62938462 L38.2414019,3.28015385 L36.952972,3.28015385 L36.952972,6.77423077 C36.952972,7.27753846 37.089215,7.722 37.6839813,7.722 C37.9122056,7.722 38.1051589,7.66523077 38.3230093,7.57315385 L38.367271,8.26961538 Z" id="Path"></path>
                    <path d="M42.5313271,8.316 L42.5313271,0.0823846154 L43.3646916,0.0823846154 L43.3646916,3.58823077 C43.6496262,2.91323077 44.3910093,2.51376923 45.1095701,2.51376923 C46.8426916,2.51376923 47.4139439,3.942 47.4139439,5.44846154 C47.4139439,6.90992308 46.7859813,8.43923077 45.0971215,8.43923077 C44.3094019,8.43923077 43.6821308,8.09792308 43.3183551,7.36546154 L43.2955327,8.31323077 L42.5313271,8.31323077 L42.5313271,8.316 L42.5313271,8.316 Z M44.9387477,7.73376923 C46.2057383,7.73376923 46.5134953,6.489 46.5134953,5.44984615 C46.5134953,4.39823077 46.2278692,3.22338462 44.9387477,3.22338462 C43.7526729,3.22338462 43.3314953,4.44461538 43.3314953,5.44984615 C43.3314953,5.95246154 43.4331589,6.51184615 43.6731402,6.96876923 C43.9345607,7.41392308 44.3336075,7.73376923 44.9387477,7.73376923 Z" id="Shape"></path>
                    <path d="M51.9445421,8.316 L51.9106542,7.40353846 C51.5793832,8.13461538 50.8601308,8.442 50.1415701,8.442 C49.1256262,8.442 48.2825794,7.90615385 48.2825794,6.75276923 C48.2825794,5.292 49.5606355,4.85792308 51.2259813,4.85792308 L51.8650093,4.85792308 L51.8650093,4.58307692 C51.8650093,3.71492308 51.5337383,3.17838462 50.5869533,3.17838462 C50.0046355,3.17838462 49.4686542,3.33692308 48.9783178,3.65746154 L48.9105421,2.91530769 C49.4008785,2.67507692 50.0841682,2.51584615 50.6208411,2.51584615 C52.0475888,2.51584615 52.6859252,3.213 52.6859252,4.63984615 L52.6859252,7.10653846 C52.6859252,7.52815385 52.6969907,7.91792308 52.7550841,8.31669231 L51.9445421,8.31669231 L51.9445421,8.316 Z M51.4431402,5.46161538 C50.382243,5.46161538 49.1387664,5.57653846 49.1387664,6.71746154 C49.1387664,7.48246154 49.6747477,7.76838462 50.2335514,7.76838462 C51.4431402,7.76838462 51.8650093,6.85453846 51.8650093,5.80361538 L51.8650093,5.46161538 L51.4431402,5.46161538 L51.4431402,5.46161538 Z" id="Shape"></path>
                    <path d="M55.1638879,5.99815385 C55.1638879,6.90023077 55.3354019,7.722 56.4184299,7.722 C57.6045047,7.722 57.968972,6.69461538 57.968972,5.68869231 L57.968972,2.628 L58.7905794,2.628 L58.7905794,6.97846154 C58.7905794,7.42430769 58.8023364,7.86946154 58.8479813,8.31461538 L58.0837757,8.31461538 L58.0616449,7.33292308 C57.6625981,8.064 57.0581495,8.44130769 56.224785,8.44130769 C54.7765981,8.44130769 54.3319065,7.47069231 54.3319065,6.147 L54.3319065,2.62938462 L55.165271,2.62938462 L55.165271,5.99815385 L55.1638879,5.99815385 L55.1638879,5.99815385 Z" id="Path"></path>
                    <path d="M60.9600935,5.57653846 C60.9600935,6.67176923 61.5424112,7.76838462 62.9684673,7.76838462 C63.515514,7.76838462 64.1082056,7.60984615 64.5314579,7.33430769 L64.5653458,8.07646154 C64.0750093,8.316 63.5058318,8.44130769 62.9684673,8.44130769 C61.0057383,8.44130769 60.0942243,7.15153846 60.0942243,5.44984615 C60.0942243,3.99946154 60.9262056,2.51515385 62.6254393,2.51515385 C64.395215,2.51515385 64.8959252,3.93092308 64.8959252,5.43876923 L64.8959252,5.57653846 L60.9600935,5.57653846 Z M64.0853832,4.95830769 C64.0286729,4.18223077 63.7437383,3.17769231 62.6371963,3.17769231 C61.5534766,3.17769231 60.9946729,4.14830769 60.9594019,4.95830769 L64.0853832,4.95830769 Z" id="Shape"></path>
                    <path d="M66.0612523,8.316 L66.0612523,3.96623077 C66.0612523,3.51969231 66.0481121,3.07523077 66.0031589,2.62938462 L66.7666729,2.62938462 L66.8019439,3.61176923 C67.2002991,2.88 67.8171963,2.51515385 68.6381121,2.51515385 C70.0980561,2.51515385 70.5434393,3.47538462 70.5434393,4.788 L70.5434393,8.316 L69.7218318,8.316 L69.7218318,4.94792308 C69.7218318,4.04584615 69.5385607,3.22476923 68.4437757,3.22476923 C67.2570093,3.22476923 66.8918505,4.25146154 66.8918505,5.25738462 L66.8918505,8.31807692 L66.0612523,8.31807692 L66.0612523,8.316 Z" id="Path"></path>
                    <polygon id="Path" points="72.4397757 8.316 72.4397757 7.29969231 73.4204486 7.29969231 73.4204486 8.316"></polygon>
                </g>
            </g>
        </g>
    </g>
</svg>