<svg xmlns="http://www.w3.org/2000/svg" width="202.346" height="53.767" viewBox="0 0 202.346 53.767">
  <g id="Group_83" data-name="Group 83" transform="translate(-131.927 -13.264)">
    <g id="Group_79" data-name="Group 79">
      <path id="Path_117" data-name="Path 117" d="M146.672,67.031H131.927l14.195-20.819-12.8-19.255h14.748L153.744,37.2l5.733-10.242h14.75L160.7,46.212l13.634,20.819H159.594l-6.462-11.242Z" fill="#0075C9"/>
      <path id="Path_118" data-name="Path 118" d="M200.345,67.031H187.2V52.449L172.292,26.957H186.98l6.909,13.578,6.9-13.578h14.47L200.345,52.224Z" fill="#0075C9"/>
      <path id="Path_119" data-name="Path 119" d="M250.587,67.031V26.957h32.67V36.3H263.722v5.737h16.531v9.353H263.722v6.287h20.311v9.35Z" fill="#0075C9"/>
      <path id="Path_120" data-name="Path 120" d="M298.053,67.031H283.3l14.19-20.819-12.8-19.255h14.753L305.113,37.2l5.739-10.242H325.6L312.08,46.212l13.634,20.819H310.96l-6.455-11.242Z" fill="#0075C9"/>
    </g>
    <g id="Group_82" data-name="Group 82">
      <g id="Group_81" data-name="Group 81">
        <g id="Group_80" data-name="Group 80">
          <path id="Path_121" data-name="Path 121" d="M325.6,31.341a4.329,4.329,0,0,1,4.337-4.333h0v1.187a3.149,3.149,0,0,0-3.152,3.146h0a3.15,3.15,0,0,0,3.152,3.149h0a3.152,3.152,0,0,0,3.152-3.149h0a3.152,3.152,0,0,0-3.152-3.146h0V27.008a4.333,4.333,0,0,1,4.338,4.333h0a4.331,4.331,0,0,1-4.338,4.335h0a4.327,4.327,0,0,1-4.337-4.335Z" fill="#0075C9"/>
        </g>
      </g>
      <path id="Path_122" data-name="Path 122" d="M332.191,33.648h-1.549l-1.166-1.831h-.014v1.831h-1.243V28.879h1.858c.942,0,1.655.452,1.655,1.467a1.285,1.285,0,0,1-1.045,1.348Zm-2.729-2.631h.119c.4,0,.859-.075.859-.592s-.455-.594-.859-.594h-.119Z" fill="#0075C9"/>
    </g>
    <path id="Path_123" data-name="Path 123" d="M250.724,40.482a18.464,18.464,0,0,1-.3,3.351c-1.227,6.663-6.4,10.732-16.345,10.732h-6.628V67.031H214.324V26.957h14.564a58.994,58.994,0,0,0,2.2-7.741c.286-1.152,1.436-5.715,1.514-5.952.08.237,1.237,4.8,1.517,5.952a56.578,56.578,0,0,0,2.249,7.85c7.9.646,12.47,4.144,13.883,9.527A15.537,15.537,0,0,1,250.724,40.482Zm-7.631,6.394c-12.277,3.375-20.219-3.285-21.233-5.165,1.786,1.194,14.046,4.564,24.47-2.04v-.025c-9.572,4.439-19.942-.1-21.463-2.2.9.684,11.419,1.835,19.077-2.5l-.01-.008c-6,2.629-14.326.173-16.16-1.495.616.464,7.229.665,11.8-1.179a16.789,16.789,0,0,1-3.29-2.242c-2.293-1.981-3.57-9.375-3.686-10.75-.121,1.375-1.388,8.769-3.686,10.75-2.507,2.177-4.566,2.749-6.173,3.752-6.7,4.195-5.822,15.934,9.859,15.934C237.441,49.7,240.865,48.566,243.093,46.876Z" fill="#0075C9" fill-rule="evenodd"/>
  </g>
</svg>
