<?xml version="1.0" encoding="UTF-8"?>
<svg version="1.1" viewBox="0 0 2016 1600" width="126" height="100" xmlns="http://www.w3.org/2000/svg">
<path transform="translate(62,34)" d="m0 0 71 2h156l670-1 12 1v90l-1 799-1 17h-37l-180-1h-690l-1-2-1-14-1-65-2-269 1-209 1-83 1-254 1-10zm181 163-19 1-1 9-1 120v458h570l13-1 1-56v-530l-2-1z" fill="#06365A"/>
<path transform="translate(1304,160)" d="m0 0 8 1 12 6 17 12 36 26 14 11 14 10 36 26 14 11 18 13 19 14 12 9 21 16 28 20 18 14 13 10 19 14 14 10 60 45 15 11 12 9 13 10 18 13 14 10 21 16 38 28 20 15 19 13 17 13 16 12 14 11 13 10 12 9 4 9-1 323-3 1-16 1-41 1h-92l2 3v149l-2 2-46 1-743 1-8-1-2-4-1-30v-117l3-3 3-1 31-1 758-1-1-6v-254l-7-8-14-10-13-10-14-10-18-13-34-25-14-10-17-12-18-13-13-10-14-10-18-13-57-42-11-8-18-13-18-14-54-39-16-11-20-14-18-13-14-10-21-16-9-7-8-1-11 8-13 10-20 15-14 10-18 13-19 14-17 12-18 13-11 8-18 14-15 11-6 4h-3l-2-12v-170l4-7 33-22 18-13 14-11 17-13 18-14 24-18 15-12 9-7 19-14z" fill="#8E9CB4"/>
<path transform="translate(1686,620)" d="m0 0 6 2 5 3 6 3 10 7 10 6v2l6 2 10 5 10 7v2l5 2 11 8 5 5 3 5 3 7 2 13 1 32v73l-1 36v95l5 5 2 1 77 1v1h-92l2 3v149l-2 2-46 1-743 1-8-1-2-4-1-30v-117l3-3 3-1 31-1 758-1-1-6v-254l-7-8-14-10-13-10-14-10-18-13-12-9z" fill="#ADAEAE"/>
<path transform="translate(921,1272)" d="m0 0h14l24 3 28 5 7 3 3 9v21l-2 25-4 4-8-1-25-7-18-3h-25l-16 4-17 6-11 6-9 7-8 9-8 14-6 16-2 11-1 21 3 17 5 16 6 11 9 11 7 6 14 8 16 6 14 3 17 1 11-2 5-2 2-20v-11l-1-15-2-3-3-1h-30l-7-3-1-3v-29l2-20 101-1 5 2 2 5 1 22v89l-2 28-3 5-8 3-37 7-20 2h-58l-19-3-18-5-20-9-15-10-17-17-9-13-8-15-7-18-5-21-1-7v-35l3-18 6-21 11-23 10-14 9-10 9-9 15-10 14-8 19-7 28-7 21-4z" fill="#1C1E1F"/>
<path transform="translate(1697,1279)" d="m0 0h14l10 2-1 5-7 11-11 13-14 19-11 14-10 13-14 18-11 13-4 7 3 9 8 16 11 20 16 26 9 14 8 13 17 29 15 24 4 9v3l-12 1h-55l-9-2-6-7-12-19-14-25-10-19-13-24-7-11-6-5-9 6-4 6-3 14-1 7-1 18v53l-2 5-4 2-21 1h-35l-3-2-1-3-1-23v-184l1-64 4-2 29 1h31l2 2v49l-1 36-1 16 7-4 9-10 13-22 13-19 10-13 8-11 8-13 5-8 5-3z" fill="#1D1F20"/>
<path transform="translate(1829,1272)" d="m0 0h23l25 3 18 4 15 5 6 4 1 2v7l-4 14-7 21-5 9h-6l-23-10-10-2-19-1-12 2-12 6-9 8-2 4v6l6 9 6 7 16 8 25 11 21 10 16 11 13 12 8 10 6 10 4 11 2 17v9l-3 18-9 17-10 13-11 11-13 8-16 6-12 3-14 2-16 1h-44l-33-7-6-3-4-6-1-4v-8l7-27 3-10 3-5 12 3 21 7 14 3 7 1h27l10-4 11-7 6-9 2-5-1-6-6-8-10-8-18-8-24-10-23-12-13-9-11-11-8-13-5-12-2-14v-18l4-18 4-8 8-11 11-12 15-11 16-8 18-6z" fill="#1C1E1F"/>
<path transform="translate(1171,1280)" d="m0 0h173l1 5-1 43-2 6-3 1h-103l-1 54 99 1 5 2v22l-1 26-3 2h-99l-1 115-6 2-37-1-18-1-4-4-1-5v-232l1-34z" fill="#1D1F20"/>
<path transform="translate(374,1279)" d="m0 0h30l15 4 11 6 5 4 10 13 4 8 4 15v26l-4 12-6 10-6 7-11 9-10 9-10 6-13 9-13 5-21 11-9 6-9 9-7 11-2 6v13l4 16 6 11 8 9 12 6 8 2h18l22-6 12-5 6-4 3-5-2-11-6-16-8-19-10-21-7-14 1-4 8-5 40-1 22 3 18 6 6 4 6 9 1 6-5 3-7 1-31 1 2 9 8 16 11 23 9 21 16 34v6l-6 6-6 1-13-2-7-3-7-7-7-9-4-3h-7l-21 11-25 8-10 2h-23l-15-3-17-6-11-7-10-9-10-13-7-15-4-17v-24l5-18 8-14 8-10 9-10 16-12-1-9-8-16-6-18-1-6v-20l3-13 5-9 9-11 9-8 13-7zm12 36-10 4-11 7-5 6v12l6 12 6 7 8 4 9 1 10-3 10-6 4-5 2-5v-10l-5-10-8-8-12-6z" fill="#1D1F1F"/>
<path transform="translate(180,1279)" d="m0 0h8l9 2 5 4 6 14 10 32 15 43 13 38 14 40 8 30 6 20 12 30 8 17-2 5-9 3-21 2-7-1-7-8-8-21-8-26-11-30-2-5-6-1h-80l-5 5-13 40-11 31-4 10-4 4-7 2h-18l-7-2-1-1v-8l7-25 20-66 8-23 11-31 9-29 15-42 13-42 4-6 7-3 5-1zm-9 49-3 7-5 24-16 51-6 16-3 11 10 1 59 2 4 1-1-6-6-20-8-24-7-22-7-21-6-15-3-5z" fill="#1E2020"/>
<path transform="translate(611,1273)" d="m0 0h16l21 2 19 5 10 5 5 6 1 3v9l-4 11-2 2h-11l-27-7-7-1h-24l-11 3-7 4-6 5-8 10-3 7v12l3 11 6 10 10 9 9 6 39 16 13 7 12 9 10 9 8 10 5 10 4 11 2 13v23l-3 13-9 16-12 13-11 9-14 8-13 4-14 2h-46l-18-3-20-5-6-5-1-3v-21l3-10 1-1 8 1 30 10 18 5 8 1h15l12-4 13-7 10-9 6-9 3-10v-12l-4-10-8-11-13-10-15-8-21-9-19-9-11-7-12-11-9-9-8-13-4-10-1-5v-23l4-16 5-12 9-11 6-7 11-8 15-8 14-4z" fill="#1E1F20"/>
<path transform="translate(1056,1280)" d="m0 0 48 1h14l2 1 1 3 1 23v248l-5 2h-62l-2-3 1-235 1-37z" fill="#1E2020"/>
<path transform="translate(1389,1281)" d="m0 0 62 1 2 3 1 274-3 1-23-1h-42l-2-4 1-7 1-5v-107l1-147 1-7z" fill="#1D1E1E"/>
<path transform="translate(225,190)" d="m0 0h521l47 1 21 1 1 1v590l-1 1h-9v-56l1-530h-582v4l-5-1v-8z" fill="#FDFDFD"/>
<path transform="translate(62,34)" d="m0 0h6l2 1-1 35-1 255v484l1 132h-7l-1-2-1-14-1-65-2-269 1-209 1-83 1-254 1-10z" fill="#FEFEFE"/>
<path transform="translate(1710,1286)" d="m0 0 7 4-4 7-11 13-14 19-11 14-10 13-14 18-11 13-4 7 3 9 8 16 11 20 16 26 9 14 8 13 17 29 15 24 4 9v3l-12 1h-55l-9-2-6-7-12-19-14-25-10-19-13-24-7-11-6-5-9 6-4 6-3 14-1 7-1 18v53l-2 5-4 2-21 1h-35l-3-2-1-5 64 1-2-7-1-46 2-27 2-15 5-8 3-2 3-7 7-3 5 5 2 4 5 5 8 13 3 5 8 16v3h2l9 12 2 8h2l6 11 3 11 8 11 5 5v2h4v2l29 1h27l6-1-1-4-7-3-3-4-2-6 1-3h-2l-6-13v-2l-3-1-5-12v-3h-2l-4-12-4-4-6-10-12-17-9-15-6-7-5-12-5-7-4-11v-8l2-8 5-9 7-12 8-7 10-14 10-13 7-8 5-7 8-7 6-8 4-6h2l2-10z" fill="#597580"/>
<path transform="translate(1304,160)" d="m0 0 8 1 9 4-3 2 9 5 5 3-1 5h-15l-3-1-8 1-5 1-6 4-7 3-12 7-9 7-5 6-4 2-5 6-6 4-5 6-12 9-5 4h-2l-1 3-8 6-11 10-5 4h-2v2l-11 7-11 9-3 4 2 1-4 4-8 3-6 2-9 7 1 1h3l1 3-4 2h-3v-2l-7 2-5 5-7 10h-2l-1 2v-25l4-7 33-22 18-13 14-11 17-13 18-14 24-18 15-12 9-7 19-14z" fill="#9EABB9"/>
<path transform="translate(921,1272)" d="m0 0h14l24 3 28 5 7 3 1 4-5-2-27-2-35-1h-15l-27 3-33 9-17 8-10 6-5 2-5 5-4 2-2 4-8 13-13 25-8 18-6 29v41l3 27 4 11 10 15 9 11 18 18 10 7 16 8 7 2 10 4 9 2 44 4v1h-30l-19-3-18-5-20-9-15-10-17-17-9-13-8-15-7-18-5-21-1-7v-35l3-18 6-21 11-23 10-14 9-10 9-9 15-10 14-8 19-7 28-7 21-4z" fill="#535556"/>
<path transform="translate(962,36)" d="m0 0h9v90l-1 799-1 17h-5l1-34 2-155v-249l-1-463z" fill="#607A87"/>
<path transform="translate(1686,620)" d="m0 0 6 2 5 3 6 3 10 7 10 6v2l6 2 10 5 10 7v2l5 2 11 8 5 5 3 5 3 7 2 13 1 32v73l-1 36v95l5 5 2 1 77 1v1h-81v-2l-5-2-5-10v-6l-1-2v-22l1-6v-131l-1-9 1-9-1-9-1-3-1-21-2-8-1-19-3-6-9-8-14-10-16-12-18-13-19-14z" fill="#9EABB9"/>
<path transform="translate(908,1328)" d="m0 0h38l15 1h16l2 1-1 4h-2l1 4-7-1-16-4-14-2h-25l-16 4-17 6-11 6-9 7-8 9-8 14-6 16-2 11-1 21 3 17 5 16 6 11 9 11 7 6 14 8 16 6 14 3 17 1 11-2 5-2 2-20v-11l-1-15-2-3-3-1h-14v-3l-10-2 5-5h8l12 2 6 4 4 9 2 10v21l-1 4h-2v6l-4 5-11 7-14 1-9 1-10-2-18-5-16-8-6-4-11-9-7-10-6-13-4-17-1-8v-36l2-13 5-11 7-12 9-11 6-6 5-2 4-4 15-7 12-3z" fill="#8E9AAD"/>
<path transform="translate(220,201)" d="m0 0 4 1-1 125-1 454h-3l-1-5-1-63v-67l1-137 1-302 1-4z" fill="#597580"/>
<path transform="translate(1829,1272)" d="m0 0h23l25 3 11 2v1h-13l-7-1h-41l-17 3-12 3v2l-9 5h-2v2l-5 1v2l-8 4-5 7-3 1-5 9h-2l-1 4-6 12-4 13-2 14v7l4 13 4 8 5 4 5 6 7 6 5 5v2l4 1 23 13 32 16 11 7 5 4 2 5 5 5 1 5-7-6-9-6-16-7-24-10-23-12-13-9-11-11-8-13-5-12-2-14v-18l4-18 4-8 8-11 11-12 15-11 16-8 18-6z" fill="#5C7782"/>
<path transform="translate(225,190)" d="m0 0h521l47 1 21 1 1 1v590l-1 1h-9v-2l8-1v-166l-1-120v-290l1-11-38-1-301-1h-252z" fill="#909DA8"/>
<path transform="translate(1409,230)" d="m0 0 4 2 17 12 19 14 10 8 36 26 18 14 18 13 15 11 16 12 26 20 19 14 14 10 3 3-8 1-9-5-12-6-10-10-5-3-1-2h2l-4-7-6-3-1-2-5 2-24-12-5-4-5-2-9-9-2-4-6-4-4-6-6-4h-4l-1-4-7-2-5-3v-3l-9-2-4-4-6-3-5-6-8-7-5-6-4-6-4-3v-2l-5-1-6-7-9-4-1-4-6-2-4-4z" fill="#9EABB9"/>
<path transform="translate(67,35)" d="m0 0h3l-1 35-1 255v484l1 132h-7l-1-2v-38l2-6 1-43 1-360 1-419z" fill="#9AA2AA"/>
<path transform="translate(1583,1437)" d="m0 0 5 3 3 6 5 5 8 13 3 5 8 16v3h2l9 12 2 8h2l6 11 3 11 8 11 5 5v2h4v2l29 1h41l-1-4 2 1 2 9-12 1h-55l-9-2-6-7-12-19-14-25-10-19-13-24-7-11-6-5-9 6-4 6-3 14-1 7-1 18v53l-2 5-4 2-21 1h-35l-3-2-1-5 64 1-2-7-1-46 2-27 2-15 5-8 3-2 3-7z" fill="#607A86"/>
<path transform="translate(996,1394)" d="m0 0h9l5 2 2 5 1 22v89l-2 28-3 5-8 3-37 7-20 2h-27v-1l23-1 16-3 17-2 2-1h8v-2l6-3 5-4h4l1-3h4l2-4 3-15 1-8v-70l-1-22v-21l-32 2h-67l1 37 3 8 4 6-10-1-3-2-1-3v-29l2-20z" fill="#8F9CB3"/>
<path transform="translate(1171,1280)" d="m0 0h10v1h-8l1 262 1 9 5-1 55 1v5l-6 2-37-1-18-1-4-4-1-5v-232l1-34z" fill="#949FB2"/>
<path transform="translate(417,1283)" d="m0 0 6 2 9 6 5 5 8 10 4 8 4 15v26l-4 12-6 10-6 7-11 9-10 9-10 6-13 9-13 5-21 11-9 6-9 9v-3l16-16 11-9 8-6 5-4 13-8 17-9 11-8 9-8h2l2-4 6-8 4-8 2-8v-15l-3-15-8-16-9-11-10-8z" fill="#5C747E"/>
<path transform="translate(1547,1281)" d="m0 0h18l2 2v49l-1 36-1 16 7-4 9-10 13-22 13-19 10-13 8-11 8-13 5-8 5-2-4 7h-2l-3 9-6 11h-2l-2 5-4 6h-2l-2 4-8 14-13 21-9 17-6 8-4 8-7 9h-6l-3-7v-112h-13z" fill="#545759"/>
<path transform="translate(1862,1477)" d="m0 0h1v15l-3 7-7 5-10 3-17 1-47-4-19-5-1 2h-7l1-5h-2v2h-2l1 7-2 11v6l3 12 10 16 20 3 14 2v2h32v1h-44l-33-7-6-3-4-6-1-4v-8l7-27 3-10 3-5 12 3 21 7 14 3 7 1h27l10-4 11-7 6-9z" fill="#555759"/>
<path transform="translate(1824,1329)" d="m0 0h7l-3 2-10 6-8 7-2 4v6l6 9 6 7 16 8 25 11 21 10 16 11 13 12 8 10 6 10 4 11 2 17v9l-3 18-9 17-10 13-11 11-13 8-16 6-12 3-14 1 3-2 16-4 4-2 7-2 13-4 5-2v-2h3v-2l8-7 9-9 7-11 5-11 3-13 1-10-1-10-1-1-2-11-5-13-7-11-10-10v-2l-5-2-11-8-14-7-4-4-7-2v-2l-6-1-3-3-9-2-9-4-16-8-9-8-5-5-2-9 3-7 4-5 5-5 7-4z" fill="#595E61"/>
<path transform="translate(611,1273)" d="m0 0h16l21 2 19 5 8 4-2 1-15-5-18-3h-43l-16 4-16 8-8 6-5 5-9 11-6 11-1 4-1 26 1 13 5 13 6 10 11 12 10 9 15 10 19 10 11 4 3 1v2l9 3 11 6 14 10 7 9 3 5-1 7-3 12h-1l-1-12-4-10-8-11-13-10-15-8-21-9-19-9-11-7-12-11-9-9-8-13-4-10-1-5v-23l4-16 5-12 9-11 6-7 11-8 15-8 14-4z" fill="#A8ABAE"/>
<path transform="translate(173,1309)" d="m0 0 3 3 15 48 7 19 4 9 1 9h2l5 18 2 5 2 10 2 12-70-1-10-2-1-1v-7l5-9 3-13h2v-7h2l2-9 4-11 3-5 4-12 2-1-3 11-11 35-6 16-3 10 9 1 59 2 3 1-1-5-6-20-8-24-7-22-7-21-8-20-3 1v-5h2z" fill="#A3A8AE"/>
<path transform="translate(779,1356)" d="m0 0 1 3-2 6v7l1 4-3 14-3 22v28l3 26 4 15 9 15 11 14 19 19 10 7 16 8 7 2 10 4 9 2 44 4v1h-30l-19-3-18-5-20-9-15-10-17-17-9-13-8-15-7-18-5-21-1-7v-35l3-18 6-21z" fill="#ACADAE"/>
<path transform="translate(293,1483)" d="m0 0 2 3 7 16 14 22 9 11 9 6 16 6 5 1h46l18-2 14-7 9-7 5-9 2-6 2 2 6 16-1 3-3-2h-7l-21 11-25 8-10 2h-23l-15-3-17-6-11-7-10-9-10-13-7-15-4-17z" fill="#F3F3F3"/>
<path transform="translate(1449,447)" d="m0 0 5 1 3 1v2l5 1v2l7 2 9 7v2l4 2 15 10 10 7 2 4 6 1 4 3v2l6 2 9 7 8 7 11 9v2h2l2 2 8 4v2l6 2 5 4 8 4 6 7 5 2 1 4 5 1 10 7 2 1v2l5 2 1 3h2v2h2v2l4 1 9 6 5 3 3 3v2l4 1v2h2l2 5 4 1v2h2l-1 2-17-12-18-13-12-9-18-13-19-14-18-13-38-28-11-8-19-14-20-15-18-13z" fill="#9FABB9"/>
<path transform="translate(1121,373)" d="m0 0 2 4-1 71 5 2 11 6 7-1 9-2 8-3 2-4 5-5h4v-2l11-9 10-7 10-5h2v-2l4-3 10-2-5 5-18 13-17 12-15 11-18 14-15 11-6 4h-3l-2-12z" fill="#9EABB9"/>
<path transform="translate(1637,1384)" d="m0 0 1 4-1 3v12l4 9 9 15 6 9 3 11h2l4 8 8 9 6 8 5 5 9 15 17 29 15 24 1 6h-11l3-1-1-4-7-3-3-4-2-6 1-3h-2l-6-13v-2l-3-1-5-12v-3h-2l-4-12-4-4-6-10-12-17-9-15-6-7-5-12-5-7-4-11v-8l2-8z" fill="#55595B"/>
<path transform="translate(67,35)" d="m0 0h3l-1 35-1 255-1 393h-1l-1-226 1-419z" fill="#9BA4B2"/>
<path transform="translate(1829,1272)" d="m0 0h23l25 3 11 2v1h-13l-7-1h-41l-17 3-12 3v2l-9 5h-2v2l-5 1v2l-8 4-5 7-3 1-5 9h-2l-1 4-6 12-4 13-2 14v7l4 13 4 8 5 4 5 6 7 6 5 5v2l4 1 23 13 22 11-3 1-17-8-7-2h-4l-1-3-4 1h-4v-3l-6-2-3-4-8-8-4-1-2-6-4-5v-2l-4-2-5-7-4-11-1-3v-19l5-22 5-12 7-11 7-7 15-11 16-8 18-6z" fill="#585A5C"/>
<path transform="translate(1580,1435)" d="m0 0h6l9 10 12 19 10 16 8 14 10 15 1 3 3 2 3 6 3 5 3 7 7 12 5 3 8 2 11 1v1h-16l-7-1v-2h-4l-7-8-8-12-2-9-5-8v-3h-2l-4-10-7-8v-2h-2l-9-19-9-15-4-5v-2l-3-1-4-7-3-1-6 3-3 7-5 5-2 4-3 24-1 20 1 44 1 1v6l-2-3-1-2-3-32-1-19 1-18 3-19 3-6 4-6h2l2-4 5-7z" fill="#535455"/>
<path transform="translate(844,1367)" d="m0 0 1 2-5 11-4 17v40l4 20 7 16 7 9 5 3 8 6 8 5 20 8 15 3 11-1 18-4 5-2 2-20v-11l-1-15-2-3-3-1h-14v-3l-10-2 5-5h8l12 2 6 4 4 9 2 10v21l-1 4h-2v6l-4 5-11 7-14 1-9 1-10-2-18-5-16-8-6-4-11-9-7-10-6-13-4-17-1-8v-36l2-13 5-11z" fill="#556064"/>
<path transform="translate(383,1310)" d="m0 0h7l16 5 8 4 5 4 2 4v12l-5 16-4 8-7 6-9 4-7 2-3 3-6-1-7-3-4-4v-3l-4-1-4-5v-2h-3l-2-4 2-9 2 3 2-3 5 10 5 6 8 4 9 1 10-3 10-6 4-6 1-3v-10l-5-10-10-10h4v-2l-20-6z" fill="#5D7681"/>
<path transform="translate(324,1350)" d="m0 0 3 4 11 21 12 13 5 6-9 6-7 6-5 5-11 12-6 7-12 17-7 12-4 9h-1l1-10 5-15 7-12 8-10 9-10 16-12-1-9-8-16-6-18z" fill="#4A555E"/>
<path transform="translate(1173,1281)" d="m0 0h2l1 3 1 63v37l-1 168-2-2-1-7z" fill="#555F63"/>
<path transform="translate(444,1434)" d="m0 0h9l6 2 5 6v1l-7 1 2 9 8 16 11 23 9 21 8 17-1 3-7-7-8-14-8-15-22-46-5-15z" fill="#8C9AAF"/>
<path transform="translate(921,1272)" d="m0 0h14l24 3 28 5 5 2v1l-21-1-19-1h-49l-19 3-12 3-29 9-4-2 4-3 19-7 28-7 21-4z" fill="#909DB3"/>
<path transform="translate(1239,1390)" d="m0 0h95l5 2v22l-1 26-3 2-3-1 1-43-4-1-23-1-66-1z" fill="#ACAFB2"/>
<path transform="translate(1340,1280)" d="m0 0h4l1 5-1 43-2 6-3 1h-103l-1 2v-6l100-1 4-1z" fill="#A4A9B0"/>
<path transform="translate(1579,1441)" d="m0 0h6l2 5-4 1-8 6-4 8-3 18-1 18v53l-2 5-4 2-21 1h-35l-3-2-1-5 64 1-1-6v-53l2-26 3-12 5-4 3-9z" fill="#ABADAF"/>
<path transform="translate(1007,1397)" d="m0 0h1l1 6 2 61v49l-1 23-1 8-5 3-41 8-20 2h-27v-1l23-1 16-3 17-2 2-1h8v-2l6-3 5-4h4l1-3h4l2-4 3-15 1-8v-70l-1-22z" fill="#555B5E"/>
<path transform="translate(814,193)" d="m0 0h1v590l-1 1h-9v-2l8-1z" fill="#798C9A"/>
<path transform="translate(173,1309)" d="m0 0 3 3 15 48 7 19 4 9 1 14 2 3 2 11 1 3-1 5-2-3-10-30-7-22-7-21-8-20-3 1v-5h2z" fill="#A7AAAC"/>
<path transform="translate(339,1448)" d="m0 0v3l-6 10-1 4v13l4 16 6 11 8 9 12 6 8 2h18l22-6 12-5 2 1-11 7-17 6-19 2h-10l-10-4-11-7-12-12-6-12-2-7v-15l8-16z" fill="#A2A7AD"/>
<path transform="translate(128,1346)" d="m0 0h1v10l-2 4h-2v5l-3 8-6 20-5 21-10 27-5 16-8 20-3 7-3 9-3 7-1-3 12-40 8-23 11-31 9-29z" fill="#5C6165"/>
<path transform="translate(417,1283)" d="m0 0 6 2 9 6 5 5 8 10 4 8 4 15v26l-4 12-5 9-3-3v-2l-3-1 6-11 3-10v-15l-3-15-8-16-9-11-10-8z" fill="#AEB0B2"/>
<path transform="translate(1563,1281)" d="m0 0 4 2v49l-1 36-1 16 7-4 9-10 13-22 9-13 1 2-8 15-5 8-8 16-5 6-5 10-6 2-3-3z" fill="#929EB3"/>
<path transform="translate(1645,1544)" d="m0 0 3 2v2l15 2 22 1h41l-1-4 2 1 2 9-12 1h-55l-9-2-6-7z" fill="#ABAEB0"/>
<path transform="translate(609,1303)" d="m0 0h12l14 2 6 3-2 1-7-1h-24l-11 3-7 4-6 5-8 10-3 7v12l3 11 6 10 4 5-4-2-8-7-6-10-2-6v-13l4-9 9-10 9-8 9-4z" fill="#A6AAAD"/>
<path transform="translate(1782,507)" d="m0 0 4 2 18 13 21 16 13 9 17 12 13 10 9 7-4 1-5-2-4-3-11-6-6-5v-2l-4-2-10-8-7-4-1-4-4-2v-2l-10-3-5-3-7-3-6-5-5-5-5-9z" fill="#9EABB9"/>
<path transform="translate(837,1433)" d="m0 0h1l4 17 7 16 10 13 8 7 14 8 16 6 14 3 11 1 2 2-11 2-13-2-13-4-16-7-13-10-6-4-7-10-6-14-2-8z" fill="#A6AAB0"/>
<path transform="translate(1920,1435)" d="m0 0 4 5 5 13 2 17v9l-3 18-9 17-10 13-11 11-13 8-16 6-12 3-14 1 3-2 16-4 4-2 7-2 13-4 5-2v-2h3v-2l8-7 9-9 7-11 5-11 3-13 1-10-1-10-1-1-2-13h2l-5-13z" fill="#5C6468"/>
<path transform="translate(613,1391)" d="m0 0 5 1 24 10 11 6 12 9 10 9 8 10 5 10 4 11 2 13v23l-3 13-9 16-12 13-7 6-2-1 12-11 9-13 8-16 2-13-2-23-4-15-8-15-13-12-18-12-16-9-16-8z" fill="#9FA5AA"/>
<path transform="translate(217,1333)" d="m0 0h2l20 59 14 40 10 30 1 8-5-5-2-1-1-5 1-1-1-7-5-14-2-7-7-17-7-20-8-21-9-25-2-13z" fill="#747D86"/>
<path transform="translate(531,1510)" d="m0 0 8 1 4 2-6 8-4 13v9l4 2 7 3 31 6 4 2 8 1v1h-15l-18-3-20-5-6-5-1-3v-21l3-10z" fill="#AAACAE"/>
<path transform="translate(903,1280)" d="m0 0h49l32 2 10 1 1 4-5-2-27-2-35-1h-15l-27 3-33 9-17 8-10 6-5 2-5 5-4 2-2 4-6 10-2-4h2l2-4 7-10 5-7 18-11 4-1 3 1 35-11 16-3z" fill="#56666D"/>
<path transform="translate(220,201)" d="m0 0 4 1-1 125-1 41-2-3v-157l2-3v-2h-2z" fill="#929FB5"/>
<path transform="translate(1860,1482)" d="m0 0h1v8l-3 7-8 6-12 2h-18l-39-2-18-7-4-3h-7l-3 2 2-6 3-1 31 10 14 3 7 1h27l10-4 11-7z" fill="#ACADAE"/>
<path transform="translate(324,1350)" d="m0 0 3 4 11 21 12 13 5 6-9 6-8 7h-3l-1-4 5-4-1-9-8-16-6-18z" fill="#8795A8"/>
<path transform="translate(1748,1337)" d="m0 0 1 4-3 18v7l4 13 4 8 5 4 5 6 7 6 5 5v2l4 1 23 13 22 11-3 1-17-8-7-2h-4l-1-3-4 1h-4v-3l-6-2-3-4-8-8-4-1-2-6-4-5v-2l-4-2-5-7-4-11-1-3v-19l3-13z" fill="#535455"/>
<path transform="translate(356,1285)" d="m0 0h2v2h2v2l-9 7-9 10-10 17-5 10-1 4h-2v13h-1v-20l3-13 5-9 9-11 9-8z" fill="#4C5459"/>
<path transform="translate(358,1346)" d="m0 0 2 3 2-3 5 10 5 6 8 4 9 1 10-3 3-1-1 5-6 3-6 2-1 2h-2v3l-6-1-7-3-4-4v-3l-4-1-4-5v-2h-3l-2-4z" fill="#8D9BB1"/>
<path transform="translate(921,1272)" d="m0 0h14l24 3 28 5 3 2-49-3-51-1v-1l21-4z" fill="#ADAEAE"/>
<path transform="translate(1170,1548)" d="m0 0h2l2 4h5l1-1 55 1v5l-6 2-37-1-18-1-4-4z" fill="#AAACAF"/>
<path transform="translate(293,1483)" d="m0 0 2 3 7 16 14 22 9 11 9 6 10 4-2 1v2l-10-2-9-6-9-8-10-13-7-15-4-17z" fill="#AAACAD"/>
<path transform="translate(1710,1286)" d="m0 0 7 4-4 7-4 5-5 3-14 15-8 10-10 10-10 15-2 4h-2l-1 4-4 6h-2l-1 5h-2l-1 4-4 1-1 2h-2l-1 3-1-2 4-6 5-9 8-7 10-14 10-13 7-8 5-7 8-7 6-8 4-6h2l2-10z" fill="#535455"/>
<path transform="translate(1006,1395)" d="m0 0 4 1 2 5 1 22v89l-2 28-2 2 1-29v-49l-2-61z" fill="#8F9DB3"/>
<path transform="translate(437,1371)" d="m0 0h4l2 6-6 7-11 9-10 9-3 1 4-8-10 3-9 6-13 6-2-1 9-6 19-10 11-8 9-8h2l2-4z" fill="#5E7680"/>
<path transform="translate(1641,1282)" d="m0 0 2 1-4 6h-2l-3 9-6 11h-2l-2 5-4 6h-2l-2 4-8 14-13 21-8 15-4 2 2-5 8-16 6-10 4-8 3-7 9-11 9-13 7-10 7-12z" fill="#595F63"/>
<path transform="translate(240,1525)" d="m0 0 2 3 9 20 6 4h22l6-4h2l-1-14 3 4 5 11-2 5-9 3-21 2-7-1-7-8-8-21z" fill="#FBFBFB"/>
<path transform="translate(904,1395)" d="m0 0h9l-4 4v37l3 8 4 6-10-1-3-2-1-3v-29z" fill="#A6A9AC"/>
<path transform="translate(921,1440)" d="m0 0h8l3 2 9 2 5 3 4 9 2 12v7l-3 11-3 4v-21l-1-15-2-3-3-1h-14v-3l-10-2z" fill="#A7ABB0"/>
<path transform="translate(590,1424)" d="m0 0 6 2 13 6 7 2v2l9 3 11 6 14 10 7 9 3 5-1 7-3 12h-1l-1-12-4-10-8-11-13-10-15-8-21-9-3-3z" fill="#A3A7AA"/>
<path transform="translate(403,1431)" d="m0 0h2l7 9 9 15 8 18 4 12v10h3l-1 5-4 4-1-10-7-19-8-19-10-21z" fill="#A2A6AB"/>
<path transform="translate(67,35)" d="m0 0h3l-1 35-1 255h-1z" fill="#6D8190"/>
<path transform="translate(461,1542)" d="m0 0 3 1 3 4 10 1h23l3-1v6l-6 6-6 1-13-2-7-3-7-7-3-4z" fill="#FCFCFC"/>
<path transform="translate(1644,1381)" d="m0 0 2 1-7 10-1 4 11 23 11 20 16 26 4 6-1 2-10-12-8-11v-3h-2l-4-11-7-11-8-13-4-9v-12l3-6 2-2h3z" fill="#909DB3"/>
<path transform="translate(908,1328)" d="m0 0h38l15 1h16l2 1-1 4h-2l1 4-7-1-16-4-14-2h-36l-18 4-14 6-2-1 16-8 12-3z" fill="#556267"/>
<path transform="translate(967,832)" d="m0 0h1l1 56v54h-5l1-34 1-75z" fill="#58747E"/>
<path transform="translate(611,1273)" d="m0 0h16l21 2 19 5 8 4-2 1-15-5-18-3h-43l-16 4-16 8-8 6-5 5-9 11-7 13h-2l3-9 8-11 8-9 11-8 15-8 14-4z" fill="#B3B7BA"/>
<path transform="translate(449,1517)" d="m0 0 2 2 6 16-1 3-3-2h-7l-21 11-7 2-38 2-24-1v-1l45-1 18-2 14-7 9-7 5-9z" fill="#8B98AC"/>
<path transform="translate(1579,1441)" d="m0 0h6l2 5-4 1-8 6-4 8-3 18-1 18v53l-2 2-1-6v-53l2-26 3-12 5-4 3-9z" fill="#939FB2"/>
<path transform="translate(1239,1390)" d="m0 0h28l9 1 32 2 19 2v1h-21l-66-1z" fill="#8E9CB4"/>
<path transform="translate(65,855)" d="m0 0h1v69l1 17h-5l-1-2v-38l2-6 1-39z" fill="#ADAEAF"/>
<path transform="translate(660,1473)" d="m0 0h1v16l-3 12-5 9-5 5-4 1v-2l-7 1 5-5 7-9 4-9 1-4h2l1-10z" fill="#54585A"/>
<path transform="translate(1743,1516)" d="m0 0h1l3 16 9 15v2h2v3l-8-1-6-3-4-6-1-4v-8z" fill="#5E7884"/>
<path transform="translate(1815,1437)" d="m0 0 10 2 8 3 12 6 5 2 3 6 5 5 1 5-7-6-9-6-16-7-17-7 4-1z" fill="#8B98AD"/>
<path transform="translate(444,1434)" d="m0 0h9l6 2 5 6v1l-7 1 2 9 10 20v3h-2l-12-21-3-6-4-6h-2z" fill="#5C7681"/>
<path transform="translate(1238,1390)" d="m0 0 2 4 66 1 23 1 2 2h-85l-7-1-1-1z" fill="#555F64"/>
<path transform="translate(814,1309)" d="m0 0h2l-2 4-10 14h-2l1 5-5 9-4 4-2 1-2 4-2-4h-3l2-5 8-12 11-12z" fill="#5F7782"/>
<path transform="translate(202,1394)" d="m0 0 1 3h2l5 18 2 5 2 10 2 12-70-1v-1h64l-1-5-2-8v-9l-2-7-2-8-1-1z" fill="#7E8D9F"/>
<path transform="translate(844,1367)" d="m0 0 1 2-5 11-4 17v40l4 20 7 16 7 9 5 3 8 6 1 3-5-2-12-10-7-10-6-13-4-17-1-8v-36l2-13 5-11z" fill="#556166"/>
<path transform="translate(1862,1328)" d="m0 0h16l21 3 7-2-1 5-4 7h-6l-23-10-10-2z" fill="#585B5D"/>
<path transform="translate(1563,1281)" d="m0 0 4 2v49l-1 36-1 17h-1z" fill="#96A0B2"/>
<path transform="translate(456,1462)" d="m0 0 3 2 6 12 5 13 4 7 7 12 5 6v3h3l6 13-1 3-7-7-8-14-8-15-11-23-4-8z" fill="#A7AAAD"/>
<path transform="translate(1829,1272)" d="m0 0h23l25 3 11 2v1h-13l-7-1h-41l-12 2-5-2 3-2z" fill="#586469"/>
<path transform="translate(339,1448)" d="m0 0v3l-6 10-1 4v13l4 16 2 4v3l-5 1-5-10-2-7v-15l8-16z" fill="#A8ABAD"/>
<path transform="translate(1743,1337)" d="m0 0 2 2-2 18 1 14 4 13v4h2l5 9 4 4 3 5 13 11 4 4v2l-5-2-9-7-9-9-8-13-5-12-2-14v-18z" fill="#919EB3"/>
<path transform="translate(449,1332)" d="m0 0 3 3 1 5v15l-4 12-5 9-3-3v-2l-3-1 6-11 3-10z" fill="#929EB2"/>
<path transform="translate(818,1529)" d="m0 0 5 3 13 8 9 4 7 2 10 4 9 2 44 4v1h-30l-19-3-18-5-20-9-6-4-2-4-2-1z" fill="#A1A9B5"/>
<path transform="translate(1911,1520)" d="m0 0 1 3-7 8-7 7-13 8-16 6-12 3-14 1 3-2 16-4 4-2 7-2 13-4 5-2v-2h3v-2l8-7z" fill="#5E6267"/>
<path transform="translate(1862,1477)" d="m0 0h1v15l-3 7-7 5-10 3-17 1-35-3v-2h11l18 1h19l11-2 8-6 2-6z" fill="#556065"/>
<path transform="translate(320,1423)" d="m0 0v3l-14 19-8 14-4 9h-1l1-10 5-15 7-12 5-5-2 5-5 10 2-1 4-7 7-8z" fill="#A7AAAD"/>
<path transform="translate(888,1278)" d="m0 0h53l33 2 18 2v1l-21-1-19-1h-49l-19 3h-6v-1l10-2z" fill="#8E9CB3"/>
<path transform="translate(102,1544)" d="m0 0 1 3-4 8-7 3-3 1h-18l-7-2-1-4 33-1 4-4z" fill="#DEDEDE"/>
<path transform="translate(484,1420)" d="m0 0 5 1 6 5 5 9-1 5-4 2h-6l-2-6-2-13z" fill="#ACADAE"/>
<path transform="translate(1265,1332)" d="m0 0 50 1h24v2h-103l1-2z" fill="#FEFEFE"/>
<path transform="translate(373,1417)" d="m0 0h7l4 2-4 3-21 11-9 6-9 9v-3l16-16 11-9z" fill="#919DB1"/>
<path transform="translate(1010,1398)" d="m0 0 2 3 1 22v89h-1l-1-61-1-26z" fill="#ADAEAE"/>
<path transform="translate(997,1395)" d="m0 0h9l1 2-32 2h-66v-1z" fill="#56686F"/>
<path transform="translate(1694,1318)" d="m0 0v3l-13 17-22 28-1-2 5-9h2l1-5 3-4h2l1-5 7-7 6-5 4-7z" fill="#919EB3"/>
<path transform="translate(1860,1482)" d="m0 0h1v8l-3 7-3 3-9 3h-13l4-2 13-7 5-4z" fill="#A9ADB1"/>
<path transform="translate(1578,1439)" d="m0 0m-1 1m-1 1h1l-1 8-5 5-3 8-2 13-1 18v35l-1 17h-1l-1-46 2-27 2-15 5-8 3-2z" fill="#597580"/>
<path transform="translate(329,1311)" d="m0 0 1 4 3-3 1 1 2-2 1 4-8 13-3 9h-2v13h-1v-20l3-13z" fill="#7A8A99"/>
<path transform="translate(547,1514)" d="m0 0 22 7 18 5-1 5-3 5-2 2v-3l-2-1h2l-1-6-16-4-13-5-4-3z" fill="#ACB0B5"/>
<path transform="translate(217,1333)" d="m0 0h2l6 18 3 14 5 14v5l-2-2-7-18-6-17-2-13z" fill="#5D6265"/>
<path transform="translate(930,1441)" d="m0 0 11 1 6 4 4 9 2 10v21l-1 4h-2v6l-4 5-5 2 1-3h2l3-12 3-8 1-5-1-15-3-10-4-4-5-2-8-2z" fill="#565C60"/>
<path transform="translate(779,1379)" d="m0 0 1 2-5 25v41l2 17v6l-2-4-3-26v-28l4-29 1-3z" fill="#556267"/>
<path transform="translate(418,1345)" d="m0 0 1 2-5 13-7 8-11 5-8 2 2-4 10-3 3-6 8-6 5-10zm-32 30 2 1-2 1z" fill="#53585B"/>
<path transform="translate(1563,1282)" d="m0 0h1l1 109 4 2 3 1-4 3-4-1-2-4z" fill="#597580"/>
<path transform="translate(324,1350)" d="m0 0 3 4 11 21 4 5v3l-4-1-2 1v-9h-2l-1 5-2-2-7-21z" fill="#A5A9AD"/>
<path transform="translate(659,1541)" d="m0 0 2 1-10 7-12 5-12 3-9 1h-12v-1l12-2 3-2 14-2 13-4z" fill="#A1A5AA"/>
<path transform="translate(1653,1432)" d="m0 0h3l15 25 9 14-1 2-10-12-8-11v-3h-2l-4-11z" fill="#637C88"/>
<path transform="translate(921,1440)" d="m0 0h8l3 2 9 2 5 3 2 3-1 3-2-3-10-4-4 2-5 2v-3l-10-2z" fill="#A0A6B0"/>
<path transform="translate(437,1371)" d="m0 0h4l2 6-6 7-5 4h-4l-1-4 2-1-1-3 3-3h2l2-4z" fill="#575F63"/>
<path transform="translate(796,1508)" d="m0 0 4 2 18 18v3l4 2v2l-5-2-10-9-11-11z" fill="#DEE1E4"/>
<path transform="translate(161,1364)" d="m0 0 1 2-14 44-3 7h-1v-7l1-1 2-10 5-15 4-7 4-12z" fill="#A6AAAF"/>
<path transform="translate(779,1356)" d="m0 0 1 3-2 6v7l1 4-3 14-2 13h-1v-9l2-11-2 1-1 5h-1v-11l6-18z" fill="#919EB3"/>
<path transform="translate(693,1470)" d="m0 0h1v23l-3 13-9 16-12 13-7 6-2-1 12-11 9-13 8-16 2-10z" fill="#9BA2AB"/>
<path transform="translate(1759,1552)" d="m0 0h14l22 3v2h32v1h-44l-24-5z" fill="#838B93"/>
<path transform="translate(1773,1499)" d="m0 0 26 2 7 1h40l7-2-3 3-12 2h-18l-39-2-8-3z" fill="#949FB2"/>
<path transform="translate(834,1296)" d="m0 0 2 1-9 8 1 2-7 3-5 5-4 2-2 4-6 10-2-4h2l2-4 7-10 5-7z" fill="#595E62"/>
<path transform="translate(837,1433)" d="m0 0h1l4 17 7 16 3 5-2 1-5-5-2-5h-2l-4-13z" fill="#A8ABAE"/>
<path transform="translate(1235,1331)" d="m0 0h49l30 1v1h-49l-28 1-2 3z" fill="#ADAEAE"/>
<path transform="translate(1338,178)" d="m0 0 4 2 17 12 18 13 3 3-7-1-2-3-5-2-6-5-5-3-2-2v-3l-9-3v-2h-2l-4-4z" fill="#9FABB9"/>
<path transform="translate(784,1346)" d="m0 0h1v7l-2 7h2l1-2-1 5-5 13-3-2v-9l4-13z" fill="#5F7984"/>
<path transform="translate(1662,1352)" d="m0 0v3l-2 4h-2l-1 4-4 6h-2l-1 5h-2l-1 4-4 1-1 2h-2l-1 3-1-2 4-6 5-9 8-7z" fill="#535455"/>
<path transform="translate(994,1325)" d="m0 0h1v13l-4 4-8-1-6-2 3-2h5l5-8h2v-2h2z" fill="#566064"/>
<path transform="translate(240,1525)" d="m0 0 2 3 9 20 6 4 21 1v1l-5 1h-21l-5-7-7-19z" fill="#A3A7AB"/>
<path transform="translate(334,1500)" d="m0 0h5l6 9 8 7 7 4v2l-7-1-9-7-10-10z" fill="#E9EBEC"/>
<path transform="translate(1828,1379)" d="m0 0 5 2 13 5 6 2v2l8 2 1 2 7 2v3l-4 1-5-2-1-4-6-1v-2l-5-1-11-4v-2l-4-1z" fill="#06365A"/>
<path transform="translate(963,1551)" d="m0 0h15l-4 2-19 3-12 1h-27v-1l23-1 16-3z" fill="#727D87"/>
<path transform="translate(541,1551)" d="m0 0 23 1 14 3 1 1 8 1v1h-15l-18-3-13-3z" fill="#E6E7E9"/>
<path transform="translate(1565,1493)" d="m0 0h1l1 57-2 2-1-6v-52z" fill="#8E9CB4"/>
<path transform="translate(611,1273)" d="m0 0h16l21 2 19 5 8 4-2 1-15-5-18-3-1-1-15-1h-25v-1z" fill="#E1E3E5"/>
<path transform="translate(428,1542)" d="m0 0h3v2l-9 4-4 1-38 2-24-1v-1l45-1 18-2z" fill="#8E959C"/>
<path transform="translate(422,1470)" d="m0 0 1 2 2 1 3 5 1 3 4 4v10h3l-1 5-4 4-1-10-7-19z" fill="#A8ACAE"/>
<path transform="translate(383,1310)" d="m0 0h7l16 5 8 4 5 4 1 7-1-2-3-1-5-5-10-5-10-4-8-2z" fill="#778595"/>
<path transform="translate(1753,1493)" d="m0 0 3 1-1 2 6-1 7 2 13 5 10 1v1h-12l-19-5-1 2h-7l1-5-2-1z" fill="#535658"/>
<path transform="translate(1740,1525)" d="m0 0 2 1 2 10v3h2l2 4 1 7-5-2-4-6-1-4v-8z" fill="#929EB3"/>
<path transform="translate(842,1462)" d="m0 0 4 5 4 4 4 2 5 10 10 8-2 1-10-8-5-3-7-10-3-6z" fill="#8E9CB3"/>
<path transform="translate(414,1452)" d="m0 0h2l4 7v3l3 1 2 4 3 3 4 11-1 2-3-2-2-6-3-3v-2h-2l-7-17z" fill="#8D9AAE"/>
<path transform="translate(630,1519)" d="m0 0 2 2-3 5-5 3-14 3v-5l12-4z" fill="#595C5F"/>
<path transform="translate(966,36)" d="m0 0h5v90h-1l-1-85z" fill="#97A4B7"/>
<path transform="translate(1884,1332)" d="m0 0 3 1 3-1 13 4-2 5h-6l-16-7v-1z" fill="#637C89"/>
<path transform="translate(67,891)" d="m0 0h1l1 50h-2l-2-17v-18l1-1z" fill="#8F9EB0"/>
<path transform="translate(1644,1522)" d="m0 0h2l4 6 1 4 7 8 2 4v3l-4-1-3-3-5-10-2-2-1-6-2-1z" fill="#06365A"/>
<path transform="translate(916,1329)" d="m0 0h27l16 1 11 3-1 3-11-2-18-3-24-1z" fill="#7D8E9B"/>
<path transform="translate(886,1278)" d="m0 0h2v3l-5 2h-5v2l-16 3h-3v-3l22-6z" fill="#ABACAE"/>
<path transform="translate(422,1511)" d="m0 0 2 1-11 7-15 5h-9l3-3 21-6z" fill="#AEB0B3"/>
<path transform="translate(1662,418)" d="m0 0 4 2 18 13 1 2-8-1-3-2v-2l-6-2-6-7z" fill="#9EABB9"/>
<path transform="translate(682,1300)" d="m0 0 1 3-4 11-2 2-4-1h2v-4h-7l1-2h2l1-4 9-3z" fill="#A6ADB6"/>
<path transform="translate(844,1367)" d="m0 0 1 2-5 11-5 22-1 27h-1v-31l2-13 5-11z" fill="#545A5D"/>
<path transform="translate(772,1403)" d="m0 0h1v37l2 19v7h-1l-2-13v-5h-2l-1-10 1-4 1-23z" fill="#8E9CB4"/>
<path transform="translate(605,1305)" d="m0 0h30l6 3-2 1-7-1h-24l-11 2 1-3z" fill="#F5F6F6"/>
<path transform="translate(1725,465)" d="m0 0 5 2 15 11 7 5-2 2-7-4-11-6v-3l-4-1z" fill="#9FABB8"/>
<path transform="translate(1928,1483)" d="m0 0h2l-1 10-4 10-8 14-5 5 1-5 6-11 3-5 2-1 3-9z" fill="#78828C"/>
<path transform="translate(951,1329)" d="m0 0h26l2 1-1 4h-2l1 4-7-1-1-2 1-2-19-3z" fill="#545657"/>
<path transform="translate(132,1335)" d="m0 0h1v15l-3 7-2 8h-2l-2 4v-4l1-5h2l1-7 2-13z" fill="#163F5F"/>
<path transform="translate(102,1544)" d="m0 0 1 3-4 8-1 1h-19l-9-2v-1l26-1 4-4z" fill="#A8ABB0"/>
<path transform="translate(1658,1362)" d="m0 0 1 2-2 5-9 11-4 1v2l-6 3 2-5h2l2-4 3 1 1-6h2l1-3 5-5z" fill="#617B86"/>
<path transform="translate(928,1281)" d="m0 0h43l23 2 1 4-5-2-27-2-35-1z" fill="#535E64"/>
<path transform="translate(1829,1272)" d="m0 0h23l10 1v1l-34 1-13 2h-5l3-2z" fill="#949FB0"/>
<path transform="translate(682,1439)" d="m0 0 3 3v2h2l5 13 1 5v25h-1l-2-23-4-15-4-8z" fill="#69727A"/>
<path transform="translate(533,1337)" d="m0 0h2v15l1 16-2-2-3-12v-12z" fill="#7C8B9E"/>
<path transform="translate(356,1285)" d="m0 0h2v2h2v2l-9 7-7 7-2-1 2-5 8-8z" fill="#606E76"/>
<path transform="translate(1757,1311)" d="m0 0v3l-6 12-4 15h-2l-1-2 1-9 4-8z" fill="#6A818D"/>
<path transform="translate(814,1309)" d="m0 0h2l-2 4-10 14h-2v3h-2l-2-5z" fill="#929EB3"/>
<path transform="translate(1395,408)" d="m0 0 5 2 11 6v2l6 2 2 1v2l3 1v2l3 1v2l-5-2-18-13-7-5z" fill="#9FABB8"/>
<path transform="translate(418,1388)" d="m0 0 2 1-8 7-12 6-5 3-10 5-2-1 9-6 19-10z" fill="#8494AA"/>
<path transform="translate(818,1529)" d="m0 0 5 3 13 8 8 5-1 2-16-8-5-3-2-4-2-1z" fill="#ADB0B3"/>
<path transform="translate(939,1502)" d="m0 0h2l-1 3-5 3-13 1-9-1v-1l11-2z" fill="#5B6367"/>
<path transform="translate(407,1412)" d="m0 0h9l-4 3-11 7-2 2-1-6z" fill="#9EA6B1"/>
<path transform="translate(330,1408)" d="m0 0 2 1-1 5-9 11h-3l-1-2 1-2h2l1-5h2v-2l5-5z" fill="#667A87"/>
<path transform="translate(1862,1477)" d="m0 0h1v15l-3 7-7 5h-6l3-2 8-6 2-6z" fill="#576368"/>
<path transform="translate(456,1462)" d="m0 0 3 2 6 12 4 9v5l-3-4-10-20z" fill="#A5AAB0"/>
<path transform="translate(571,1353)" d="m0 0 3 1 4 10 7 9 1 2-4-2-8-7-3-4z" fill="#D6D9DD"/>
<path transform="translate(329,1311)" d="m0 0 1 4 3-3 1 1 2-2 1 4-4 6-3-2-4 7h-1l1-9z" fill="#59707A"/>
<path transform="translate(783,1492)" d="m0 0 5 2 8 11 1 3-2 3-7-9z" fill="#BBBEC0"/>
<path transform="translate(1879,1404)" d="m0 0 6 2 14 10 5 5 6 5 2 5-3-2v-2l-4-2-5-4-5-5-10-6v-2l-4-1z" fill="#06365A"/>
<path transform="translate(358,1346)" d="m0 0 2 3 2-3 3 9h-2l-1 6-1-2h-3l-2-4z" fill="#596368"/>
<path transform="translate(838,1294)" d="m0 0 5 2-1 3-12 7-4-1 9-8z" fill="#5A7079"/>
<path transform="translate(1e3 1528)" d="m0 0h1v5l-2 5h-5l-1 2-5 2-5 4-3-1 3-3h3l2-4 2-2 7-2v-2h2z" fill="#06365A"/>
<path transform="translate(209,1423)" d="m0 0 2 1v4h2l1 13h-3l-4-14v-3z" fill="#A5ACB3"/>
<path transform="translate(876,1553)" d="m0 0 18 1 21 2v1h-30v-2l-9-1z" fill="#5E676C"/>
<path transform="translate(654,1461)" d="m0 0 3 3 3 5-1 7-2 8h-1l-1-12-2-6z" fill="#8795AA"/>
<path transform="translate(1911,1285)" d="m0 0 5 3 1 2v7l-3 12h-1l-1-20z" fill="#687076"/>
<path transform="translate(570,1525)" d="m0 0h13l4 1-1 5-3 5-2 2v-3l-2-1h2l-1-6-10-2z" fill="#768088"/>
<path transform="translate(1752,1488)" d="m0 0 12 3v2l4 2 3 3-6-1-6-4h-7l-3 2 2-6z" fill="#909DB3"/>
<path transform="translate(363,1424)" d="m0 0 2 1-4 4v3l-10 6-10 10v-3l16-16z" fill="#A1A7AE"/>
<path transform="translate(376,1312)" d="m0 0h5l5 4-15 6 1-4z" fill="#808E9F"/>
<path transform="translate(668,1308)" d="m0 0 3 1-2 1 6 1v4l-2 1h-7l-3-1 1-5z" fill="#292A2B"/>
<path transform="translate(1695,1514)" d="m0 0 3 1 6 13v2h2v5l2 6-4-2-3-9-2-7-4-7z" fill="#06365A"/>
<path transform="translate(475,1556)" d="m0 0h24l-2 3-6 1-13-2z" fill="#ADAEAE"/>
<path transform="translate(916,1442)" d="m0 0 2 1v2l8 1v4h-10l-4-5z" fill="#45555F"/>
<path transform="translate(925,1440)" d="m0 0 5 1 13 4 5 5-1 3-2-3-10-4-4-1-6-4z" fill="#8A98AF"/>
<path transform="translate(201,1402)" d="m0 0 3 1 3 10 1 6-1 5-2-3-3-8z" fill="#9FABB8"/>
<path transform="translate(1805,1348)" d="m0 0h2l2 8 9 12 1 2-4-2-6-5-4-8z" fill="#778A99"/>
<path transform="translate(814,742)" d="m0 0h1v41l-1 1h-9v-2l8-1z" fill="#9BA8B9"/>
<path transform="translate(286,1534)" d="m0 0 3 4 4 8v2l-10 3 2-3h2z" fill="#959CA2"/>
<path transform="translate(1638,1399)" d="m0 0 3 4 8 16 2 5h-2l-8-13-3-7z" fill="#ACADAE"/>
<path transform="translate(994,1328)" d="m0 0h1v10l-4 4-8-1v-1l7-1 1-7 3-1z" fill="#98A2B1"/>
<path transform="translate(1706,1302)" d="m0 0 2 1-12 15-5 4-3-1 10-10 7-8z" fill="#647C88"/>
<path transform="translate(461,1542)" d="m0 0 3 1 3 4 10 1 22 1v1h-33l-5-6z" fill="#9DA1A5"/>
<path transform="translate(1745,1341)" d="m0 0 1 4-1 6v19l2 10-2-2-2-7-1-14 1-13z" fill="#597580"/>
<path transform="translate(1712,1526)" d="m0 0 3 3 10 16 1 6h-5l2-5-5-6-6-12z" fill="#677F8A"/>
<path transform="translate(67,1533)" d="m0 0 1 4 1 3v7l-3 1-1 4 2 1h-4l1-9z" fill="#60666A"/>
<path transform="translate(979,1330)" d="m0 0 4 1 1 4 2-3h2l-2 5-2 1h-7l-1-4 2-1z" fill="#063557"/>
<path transform="translate(1751,1496)" d="m0 0h2l-1 5 4 1h-2v2l-2 1-3 12-2-1 2-11v-7h2z" fill="#09314F"/>
<path transform="translate(320,1423)" d="m0 0v3l-10 14h-3l1-4 9-11z" fill="#8998AF"/>
<path transform="translate(1710,1288)" d="m0 0 5 1 2 2-6 8-3 3z" fill="#6D818E"/>
<path transform="translate(1621,1504)" d="m0 0h2l5 9 2 1v2h2l3 12-3-3-11-20z" fill="#929EB3"/>
<path transform="translate(258,1453)" d="m0 0 3 3 3 10-1 4-2-4-4-2-1-5z" fill="#365369"/>
<path transform="translate(1595,1352)" d="m0 0 1 2-3 5-1 5-5 10-4 2 2-5 8-16z" fill="#56676D"/>
<path transform="translate(224,1361)" d="m0 0 3 1 6 17v5l-2-2-7-18z" fill="#545C5F"/>
<path transform="translate(1746,1352)" d="m0 0h1v16h2l2 9 1 7-2-3-3-9-2-8z" fill="#06365A"/>
<path transform="translate(1779,1294)" d="m0 0 1 4-2 2-2-1-2 5-7 6-2 2-1-2 2-4h3l2-4 3-4 4-2z" fill="#06365A"/>
<path transform="translate(633,1519)" d="m0 0 4 1-2 6-5 3-4-2 3-1 2-5z" fill="#06365A"/>
<path transform="translate(1759,1552)" d="m0 0h14l15 2v1h-18l-11-2z" fill="#77818C"/>
<path transform="translate(590,1424)" d="m0 0 6 2 16 8 2 2-5-1-18-8z" fill="#A3A8AF"/>
<path transform="translate(1235,1331)" d="m0 0h23l-2 2-19 1-2 3z" fill="#9AA2AC"/>
<path transform="translate(1304,160)" d="m0 0 4 1-2 5-5 2-3-1 1-4z" fill="#909DB4"/>
<path transform="translate(1009,1514)" d="m0 0h1v22l-1 8-2 1-1-4 2-12z" fill="#5B7682"/>
<path transform="translate(469,1489)" d="m0 0 4 4 7 15-3 1-8-16z" fill="#9BA3AA"/>
<path transform="translate(310,1426)" d="m0 0v3l-6 12 2 1-3 4h-2l-1-5 6-10z" fill="#95A0B2"/>
<path transform="translate(1908,600)" d="m0 0 9 6 4 5 1 5-2-1v-2l-4-2-5-5v-2h-2z" fill="#9FABB8"/>
<path transform="translate(1565,1528)" d="m0 0h1l1 22-2 2-1-6v-17z" fill="#919EB3"/>
<path transform="translate(1752,1492)" d="m0 0h7l6 4-3 1-2-1h-5v-2l-3 1-1 3h-2l-1 4-1-3 1-4z" fill="#5B6D75"/>
<path transform="translate(681,1520)" d="m0 0v3l-11 12-7 6-2-1 12-11 6-8z" fill="#A8ACB0"/>
<path transform="translate(891,1504)" d="m0 0 9 1 10 2 11 1-4 2h-8l-18-5z" fill="#545D61"/>
<path transform="translate(1127,352)" d="m0 0 3 1-6 12-2 1-1-2v-9h1v5h2l1-5z" fill="#9EABBA"/>
<path transform="translate(422,1511)" d="m0 0 2 1-11 7-10 1 1-2 16-6z" fill="#DFE2E4"/>
<path transform="translate(560,1520)" d="m0 0 9 1 11 3v1h-12l-4-1-1-2z" fill="#CCCDCF"/>
<path transform="translate(1644,1381)" d="m0 0 2 1-7 10-1 6h-2v-7l3-6 2-2h3z" fill="#939FB2"/>
<path transform="translate(1743,1337)" d="m0 0 2 2-3 27h-1v-18z" fill="#9BA4B2"/>
<path transform="translate(1453,1548)" d="m0 0h1v11l-3 1h-8v-1h6l1-5z" fill="#B5BCC3"/>
<path transform="translate(331,1541)" d="m0 0 5 1 8 3-2 1v2l-10-2z" fill="#C6C9CB"/>
<path transform="translate(1920,1435)" d="m0 0 4 5 5 13v5l-2-3-7-17z" fill="#949FB2"/>
<path transform="translate(411,1356)" d="m0 0 1 2-6 8-5 2 2-6z" fill="#5D7883"/>
<path transform="translate(252,1438)" d="m0 0h3l5 14-1 3v-2h-2l-5-13z" fill="#6D767F"/>
<path transform="translate(330,1318)" d="m0 0 2 2-1 4-3 6-4-2 1-4 4-5z" fill="#8797AD"/>
<path transform="translate(1637,1289)" d="m0 0 2 1-2 7h-2l-2 6-4 6v-3l4-8 3-7z" fill="#06365A"/>
<path transform="translate(1909,1523)" d="m0 0 1 3-12 12h-2l2-4z" fill="#60676D"/>
<path transform="translate(1911,1520)" d="m0 0 1 3-2 2-1-3zm-3 3m-1 1m-1 1m-1 1m-1 1m-1 1m-1 1m-1 1m-1 1m-1 1m-1 1m-1 1m-1 1m-2 1h2l-1 4-6 3 2-5h3z" fill="#5A5F62"/>
<path transform="translate(1827,1437)" d="m0 0 6 2 13 8 1 2-5-2-9-4-3-3z" fill="#556065"/>
<path transform="translate(233,1382)" d="m0 0 2 4h2l2 13-2-1-5-14z" fill="#5E666C"/>
<path transform="translate(161,1364)" d="m0 0 1 2-5 16h-2l-2 6h-2l2-6 3-5 4-12z" fill="#7D8895"/>
<path transform="translate(1602,1344)" d="m0 0 1 2-9 15h-2l2-5 4-9z" fill="#53585A"/>
<path transform="translate(351,1290)" d="m0 0v3l-1 4-7 6-1-3 7-8z" fill="#556166"/>
<path transform="translate(1836,1504)" d="m0 0h14l-3 2-4 1h-12l1-2z" fill="#545B5E"/>
<path transform="translate(450,1434)" d="m0 0 8 1 6 7-4 1-3-4-3-1v-2z" fill="#929EB3"/>
<path transform="translate(843,1544)" d="m0 0 9 2 7 3v1h-8l-7-3z" fill="#98A1AD"/>
<path transform="translate(1807,1277)" d="m0 0h7v2l-16 4 1-3z" fill="#595D62"/>
<path transform="translate(1661,602)" d="m0 0 4 1 8 4 5 5v2l-4-2-13-9z" fill="#9FABB8"/>
<path transform="translate(1317,165)" d="m0 0 7 2 7 5v2l-4-1-9-5z" fill="#909EB4"/>
<path transform="translate(332,1404)" d="m0 0h3v3l3 1-6 4-2-3h-3z" fill="#5B6970"/>
<path transform="translate(1713,1280)" d="m0 0 8 1-1 5-2 2-5-6z" fill="#A8ABAE"/>
<path transform="translate(84,1481)" d="m0 0 1 3-3 9-3 7-1-3 4-14z" fill="#616468"/>
<path transform="translate(1659,1439)" d="m0 0 3 3 8 13-1 2-6-7-4-8z" fill="#939FB2"/>
<path transform="translate(309,1429)" d="m0 0 4 2-5 6-2 4-3 1 2-6z" fill="#56656C"/>
<path transform="translate(247,1425)" d="m0 0 2 2 2 9 3 6-1 3-4-8-4-10h2z" fill="#06365A"/>
<path transform="translate(238,1392)" d="m0 0 2 2 4 12-1 2-4-4-1-8z" fill="#6E787F"/>
<path transform="translate(403,1414)" d="m0 0h2l-1 4 2 1-5 3-2 2-1-6z" fill="#8796A5"/>
<path transform="translate(1868,1275)" d="m0 0h9l11 2v1h-13l-7-1z" fill="#525F6A"/>
<path transform="translate(659,1474)" d="m0 0h1v10l-4 6h-2v-2h2l1-10z" fill="#5D7882"/>
<path transform="translate(933,1445)" d="m0 0 9 3 1 2h-15z" fill="#ADAEAE"/>
<path transform="translate(329,1311)" d="m0 0 1 3v2h2v2l-4 4-3 4 1-9z" fill="#6A808B"/>
<path transform="translate(1641,1282)" d="m0 0 2 1-4 6h-2l-2 5-3 2 2-6 4-6z" fill="#5F6468"/>
<path transform="translate(428,1542)" d="m0 0h3v2l-9 4-6 1v-2z" fill="#A6AAAF"/>
<path transform="translate(336,1374)" d="m0 0 5 4 1 5-4-1-2 1z" fill="#A8ABAD"/>
<path transform="translate(968,925)" d="m0 0h1v17h-4l1-5 1-2z" fill="#929EB3"/>
<path transform="translate(67,35)" d="m0 0h3l-1 7-1 17h-1z" fill="#9AA5B2"/>
<path transform="translate(403,1407)" d="m0 0v3l-5 4-7 1v-3l6-1 3-3z" fill="#575A5D"/>
<path transform="translate(418,1388)" d="m0 0 2 1-8 7-6 3-2-1 3-3z" fill="#8595AB"/>
<path transform="translate(1624,1313)" d="m0 0 1 3-5 7-6 5 2-5 2-3h2l2-4z" fill="#06365A"/>
<path transform="translate(569,1284)" d="m0 0 2 1-11 8-4 4-2-1 4-5z" fill="#CACDD0"/>
<path transform="translate(449,1517)" d="m0 0 2 2 3 9v5l-2-3-3-6z" fill="#A3A8B1"/>
<path transform="translate(1752,1488)" d="m0 0 8 2-1 2-7 1-3 2 2-6z" fill="#99A2B1"/>
<path transform="translate(1681,1485)" d="m0 0 4 2 3 9v3h2l-1 3v-2h-2l-5-12z" fill="#06365A"/>
<path transform="translate(322,1416)" d="m0 0 3 1 1 3-5 5h-3l1-4h2z" fill="#647986"/>
<path transform="translate(202,1394)" d="m0 0 1 3h2l2 9-3-1-2-3z" fill="#7D8B9D"/>
<path transform="translate(339,1386)" d="m0 0h5v2h2v3h-6l-2-1z" fill="#5A7681"/>
<path transform="translate(128,1357)" d="m0 0h1v6l-1 2h-2l-2 4v-4l1-5h2z" fill="#06365A"/>
<path transform="translate(1384,1551)" d="m0 0 5 5v2h9v1h-12l-2-4z" fill="#8998A5"/>
<path transform="translate(778,1478)" d="m0 0 3 4 5 9-1 2-4-4-3-7z" fill="#9DA4AA"/>
<path transform="translate(484,1420)" d="m0 0 5 1-1 15h-1l-2-13z" fill="#8290A1"/>
<path transform="translate(1805,1348)" d="m0 0h2l3 14-4-4-1-3z" fill="#667E8B"/>
<path transform="translate(811,1315)" d="m0 0 1 4-9 12-1-4h2l2-4z" fill="#556369"/>
<path transform="translate(541,1311)" d="m0 0 1 2-6 11h-2l3-9z" fill="#C2C4C6"/>
<path transform="translate(1887,1538)" d="m0 0h4v2l-8 4h-5l3-3z" fill="#06365A"/>
<path transform="translate(1772,1500)" d="m0 0 7 1 2 1 10 1v1h-12l-7-2z" fill="#545A5D"/>
<path transform="translate(836,1383)" d="m0 0h1v9l-2 6h-1l1-13z" fill="#555F63"/>
<path transform="translate(814,773)" d="m0 0h1v10l-1 1h-9v-2l8-1z" fill="#8E9AA9"/>
<path transform="translate(463,1466)" d="m0 0 3 1 3 6v3h-2l-4-7z" fill="#677F8C"/>
<path transform="translate(378,1373)" d="m0 0 7 1 1 4-6-1-4-2z" fill="#576B73"/>
<path transform="translate(668,1308)" d="m0 0 3 1-2 1 6 1v4h-2v-3h-10l3-3z" fill="#5D676E"/>
<path transform="translate(351,1288)" d="m0 0 2 1-9 9-2 3-2-1 9-11z" fill="#23282B"/>
<path transform="translate(543,1513)" d="m0 0 4 1v2l3 1-2 2-4-1-1-3-2-1z" fill="#344958"/>
<path transform="translate(422,1470)" d="m0 0 1 2 2 1 3 5-1 4-3-4-2-5z" fill="#AAADAF"/>
<path transform="translate(652,1469)" d="m0 0h2l2 3v16h-1l-1-12z" fill="#A9ABAF"/>
<path transform="translate(378,1414)" d="m0 0 4 1 7 2-1 2-8-1-4-2z" fill="#575C5E"/>
<path transform="translate(1913,1426)" d="m0 0 5 5 3 7-1 3-6-12z" fill="#657D89"/>
</svg>
