<svg xmlns="http://www.w3.org/2000/svg" viewBox="0 0 800 600" preserveAspectRatio="xMidYMid slice" role="img" aria-labelledby="t">
  <title id="t">STO — poslovni objekat</title>
  <defs>
    <pattern id="hatch-com" width="14" height="14" patternUnits="userSpaceOnUse" patternTransform="rotate(45)">
      <line x1="0" y1="0" x2="0" y2="14" stroke="#00457C" stroke-width="1" stroke-opacity=".22"/>
    </pattern>
    <linearGradient id="sky-com" x1="0" y1="0" x2="0" y2="1">
      <stop offset="0" stop-color="#f4f1ea"/>
      <stop offset="1" stop-color="#e8e3d8"/>
    </linearGradient>
  </defs>
  <rect width="800" height="600" fill="url(#sky-com)"/>

  <line x1="0" y1="520" x2="800" y2="520" stroke="#16161a" stroke-width="1"/>
  <rect x="0" y="520" width="800" height="80" fill="url(#hatch-com)"/>

  <!-- back tower -->
  <g stroke="#16161a" stroke-width="1.2" stroke-linejoin="round">
    <rect x="430" y="80" width="200" height="440" fill="#00457C"/>
    <!-- horizontal slab lines -->
    <g stroke="#f4f1ea" stroke-opacity=".35">
      <line x1="430" y1="120" x2="630" y2="120"/>
      <line x1="430" y1="160" x2="630" y2="160"/>
      <line x1="430" y1="200" x2="630" y2="200"/>
      <line x1="430" y1="240" x2="630" y2="240"/>
      <line x1="430" y1="280" x2="630" y2="280"/>
      <line x1="430" y1="320" x2="630" y2="320"/>
      <line x1="430" y1="360" x2="630" y2="360"/>
      <line x1="430" y1="400" x2="630" y2="400"/>
      <line x1="430" y1="440" x2="630" y2="440"/>
      <line x1="430" y1="480" x2="630" y2="480"/>
    </g>
    <!-- window grid -->
    <g fill="#f4f1ea" fill-opacity=".85" stroke="none">
      <rect x="445" y="95" width="20" height="20"/><rect x="475" y="95" width="20" height="20"/><rect x="505" y="95" width="20" height="20"/><rect x="535" y="95" width="20" height="20"/><rect x="565" y="95" width="20" height="20"/><rect x="595" y="95" width="20" height="20"/>
      <rect x="445" y="135" width="20" height="20"/><rect x="475" y="135" width="20" height="20"/><rect x="505" y="135" width="20" height="20"/><rect x="535" y="135" width="20" height="20"/><rect x="565" y="135" width="20" height="20"/><rect x="595" y="135" width="20" height="20"/>
      <rect x="445" y="175" width="20" height="20"/><rect x="475" y="175" width="20" height="20"/><rect x="505" y="175" width="20" height="20"/><rect x="535" y="175" width="20" height="20"/><rect x="565" y="175" width="20" height="20"/><rect x="595" y="175" width="20" height="20"/>
      <rect x="445" y="215" width="20" height="20"/><rect x="475" y="215" width="20" height="20"/><rect x="505" y="215" width="20" height="20"/><rect x="535" y="215" width="20" height="20"/><rect x="565" y="215" width="20" height="20"/><rect x="595" y="215" width="20" height="20"/>
      <rect x="445" y="255" width="20" height="20"/><rect x="475" y="255" width="20" height="20"/><rect x="505" y="255" width="20" height="20"/><rect x="535" y="255" width="20" height="20"/><rect x="565" y="255" width="20" height="20"/><rect x="595" y="255" width="20" height="20"/>
      <rect x="445" y="295" width="20" height="20"/><rect x="475" y="295" width="20" height="20"/><rect x="505" y="295" width="20" height="20"/><rect x="535" y="295" width="20" height="20"/><rect x="565" y="295" width="20" height="20"/><rect x="595" y="295" width="20" height="20"/>
      <rect x="445" y="335" width="20" height="20"/><rect x="475" y="335" width="20" height="20"/><rect x="505" y="335" width="20" height="20"/><rect x="535" y="335" width="20" height="20"/><rect x="565" y="335" width="20" height="20"/><rect x="595" y="335" width="20" height="20"/>
      <rect x="445" y="375" width="20" height="20"/><rect x="475" y="375" width="20" height="20"/><rect x="505" y="375" width="20" height="20"/><rect x="535" y="375" width="20" height="20"/><rect x="565" y="375" width="20" height="20"/><rect x="595" y="375" width="20" height="20"/>
      <rect x="445" y="415" width="20" height="20"/><rect x="475" y="415" width="20" height="20"/><rect x="505" y="415" width="20" height="20"/><rect x="535" y="415" width="20" height="20"/><rect x="565" y="415" width="20" height="20"/><rect x="595" y="415" width="20" height="20"/>
      <rect x="445" y="455" width="20" height="20"/><rect x="475" y="455" width="20" height="20"/><rect x="505" y="455" width="20" height="20"/><rect x="535" y="455" width="20" height="20"/><rect x="565" y="455" width="20" height="20"/><rect x="595" y="455" width="20" height="20"/>
    </g>
  </g>

  <!-- front lower wing -->
  <g stroke="#16161a" stroke-width="1.4" stroke-linejoin="round">
    <rect x="140" y="240" width="280" height="280" fill="#0073CF"/>
    <g fill="#f4f1ea" fill-opacity=".88" stroke="none">
      <rect x="160" y="260" width="50" height="50"/>
      <rect x="226" y="260" width="50" height="50"/>
      <rect x="292" y="260" width="50" height="50"/>
      <rect x="358" y="260" width="50" height="50"/>
      <rect x="160" y="326" width="50" height="50"/>
      <rect x="226" y="326" width="50" height="50"/>
      <rect x="292" y="326" width="50" height="50"/>
      <rect x="358" y="326" width="50" height="50"/>
      <rect x="160" y="392" width="50" height="50"/>
      <rect x="226" y="392" width="50" height="50"/>
      <rect x="292" y="392" width="50" height="50"/>
      <rect x="358" y="392" width="50" height="50"/>
    </g>
    <!-- entrance -->
    <rect x="248" y="458" width="64" height="62" fill="#00457C"/>
  </g>

  <g font-family="ui-monospace, SFMono-Regular, Menlo, monospace" font-size="11" fill="#16161a" fill-opacity=".7" letter-spacing="1.5">
    <text x="40" y="50">FIG. — POSLOVNI OBJEKTI</text>
    <text x="40" y="565">STO VENTEC · MODERNE POSLOVNE FASADE</text>
  </g>
</svg>
